<svg width="189" height="74" viewBox="0 0 189 74" fill="none" xmlns="http://www.w3.org/2000/svg">
<g id="tchekVehiclePatternTop">
<path id="Path-14" d="M48.8396 4.15999C43.336 5.14063 39.8432 6.884 38.4673 9.39009C33.387 18.1069 33.2812 32.1628 33.2812 37.5019C33.2812 43.2768 33.4929 57.1148 39.5257 66.5943C40.7958 68.5556 43.8652 69.6452 48.9455 69.7542L44.8177 72.9141C34.9746 71.6065 27.6717 70.19 22.9089 68.7736C18.2519 67.3571 12.4307 64.742 5.2336 60.9284L2.0584 56.2431L0.999998 34.342L2.0584 19.7413L4.1752 14.1844C11.9015 9.71698 18.1461 6.66609 22.9089 5.14064C27.6717 3.6152 34.9746 2.19871 44.8177 1.00014L48.8396 4.15999Z" stroke="#979797" stroke-width="0.3"/>
<path id="Path-16" d="M80.0543 8.40512C89.3682 9.60369 100.058 10.1485 112.335 10.4754C124.613 10.8022 143.982 10.8022 170.653 10.4754C171.923 20.3908 172.664 28.2359 172.77 34.4467C172.876 40.5485 172.558 50.2459 171.712 63.5391C144.405 63.1033 124.295 63.1033 111.277 63.5391C98.2588 63.975 87.8865 64.7377 80.0543 65.6094C78.6784 54.0596 77.9375 45.0158 77.9375 38.5872C78.0433 32.0495 78.7842 22.0252 80.0543 8.40512Z" stroke="#979797" stroke-width="0.3"/>
<path id="Path-17" d="M170.766 10.4753C172.036 21.1534 172.777 29.5434 172.882 35.4273C172.988 41.3111 172.671 50.6817 171.824 63.5391C176.693 63.4301 180.185 62.6674 182.196 61.4688C184.313 60.2702 185.901 57.4373 187.382 53.1878C188.229 45.8875 188.547 40.3305 188.441 36.5169C188.335 32.8122 188.018 27.1463 187.382 19.8459C186.959 17.0129 185.477 14.9427 183.255 13.6352C180.926 12.2187 176.798 11.1291 170.766 10.4753Z" stroke="#979797" stroke-width="0.3"/>
<path id="Vector_8" d="M80.059 65.6103C78.683 54.2784 77.9422 45.2347 77.9422 38.5881C77.9422 31.9415 78.683 21.8082 80.059 8.40604L48.8362 4.26554C43.8617 5.24618 40.6865 6.55371 39.4164 8.40604C33.2777 17.7766 33.1719 30.3071 33.1719 36.5178C33.1719 42.4017 33.8069 57.4383 39.4164 66.6999C40.7923 68.8791 43.8617 69.9687 48.8362 69.8597L80.059 65.6103Z" stroke="#979797" stroke-width="0.3"/>
<path id="Vector_9" d="M175.523 11.1278C176.37 21.4791 176.899 29.4332 177.005 35.2081C177.111 40.983 176.899 50.7894 176.264 63.2109C179.545 63.102 181.874 61.5765 183.356 60.269C184.837 59.0704 186.637 56.6733 187.483 52.4238C188.013 45.3414 188.542 39.8934 188.436 36.2977C188.33 32.702 187.801 27.0361 187.378 20.0626C187.06 17.3386 185.472 15.2683 183.991 14.0698C182.403 12.8712 179.545 11.8906 175.523 11.1278Z" stroke="#979797" stroke-width="0.3"/>
<g id="Group_29">
<path id="CPT" d="M16.8769 33.6661L16.3477 33.6661L16.3477 34.2109L16.3477 36.4991L14.0192 36.4991L13.49 36.4991L13.49 37.0439L13.49 37.9156L13.49 38.4604L14.0192 38.4604L16.3477 38.4604L16.3477 40.7485L16.3477 41.2933L16.8769 41.2933L17.8295 41.2933L18.3587 41.2933L18.3587 40.7485L18.3587 38.4604L20.6871 38.4604L21.2163 38.4604L21.2163 37.9156L21.2163 37.0439L21.2163 36.4991L20.6871 36.4991L18.3587 36.4991L18.3587 34.2109L18.3587 33.6661L17.8295 33.6661L16.8769 33.6661ZM21.5339 41.7292C19.2054 44.0174 15.3951 44.0174 13.0667 41.7292C10.7382 39.441 10.7382 35.6274 13.0667 33.3392C15.3951 31.0511 19.2054 31.0511 21.5339 33.3392C23.8623 35.6274 23.8623 39.3321 21.5339 41.7292Z" fill="black" stroke="black"/>
</g>
<g id="Group_10">
<path id="TOI" d="M129.807 33.986L129.277 33.986L129.277 34.5308L129.277 36.819L126.949 36.819L126.42 36.819L126.42 37.3638L126.42 38.2355L126.42 38.7803L126.949 38.7803L129.277 38.7803L129.277 41.0684L129.277 41.6132L129.807 41.6132L130.759 41.6132L131.288 41.6132L131.288 41.0684L131.288 38.7803L133.617 38.7803L134.146 38.7803L134.146 38.2355L134.146 37.3638L134.146 36.819L133.617 36.819L131.288 36.819L131.288 34.5308L131.288 33.986L130.759 33.986L129.807 33.986ZM134.464 41.9401C132.135 44.2283 128.325 44.2283 125.996 41.9401C123.668 39.652 123.668 35.8383 125.996 33.5502C128.325 31.262 132.135 31.262 134.464 33.5502C136.792 35.9473 136.792 39.652 134.464 41.9401Z" fill="black" stroke="black"/>
</g>
<g id="Group_27">
<path id="PRBAV" d="M58.1503 33.6661L57.6211 33.6661L57.6211 34.2109L57.6211 36.4991L55.2927 36.4991L54.7635 36.4991L54.7635 37.0439L54.7635 37.9156L54.7635 38.4604L55.2927 38.4604L57.6211 38.4604L57.6211 40.7485L57.6211 41.2933L58.1503 41.2933L59.1029 41.2933L59.6321 41.2933L59.6321 40.7485L59.6321 38.4604L61.9606 38.4604L62.4898 38.4604L62.4898 37.9156L62.4898 37.0439L62.4898 36.4991L61.9606 36.4991L59.6321 36.4991L59.6321 34.2109L59.6321 33.6661L58.9971 33.6661L58.1503 33.6661ZM62.8073 41.7292C60.4788 44.0174 56.6686 44.0174 54.3401 41.7292C52.0116 39.441 52.0116 35.6274 54.3401 33.3392C56.6686 31.0511 60.4788 31.0511 62.8073 33.3392C65.1358 35.6274 65.1358 39.3321 62.8073 41.7292Z" fill="black" stroke="black"/>
</g>
<g id="Group_11">
<path id="PRBAR" d="M181.877 33.6661L181.348 33.6661L181.348 34.2109L181.348 36.4991L179.019 36.4991L178.49 36.4991L178.49 37.0439L178.49 37.9156L178.49 38.4604L179.019 38.4604L181.348 38.4604L181.348 40.7485L181.348 41.2933L181.877 41.2933L182.829 41.2933L183.359 41.2933L183.359 40.7485L183.359 38.4604L185.687 38.4604L186.216 38.4604L186.216 37.9156L186.216 37.0439L186.216 36.4991L185.687 36.4991L183.359 36.4991L183.359 34.2109L183.359 33.6661L182.829 33.6661L181.877 33.6661ZM186.534 41.7292C184.205 44.0174 180.395 44.0174 178.067 41.7292C175.738 39.441 175.738 35.6274 178.067 33.3392C180.395 31.0511 184.205 31.0511 186.534 33.3392C188.862 35.6274 188.862 39.3321 186.534 41.7292Z" fill="black" stroke="black"/>
</g>
</g>
</svg>
