<?xml version="1.0" encoding="utf-8"?>
<!-- Generator: Adobe Illustrator 24.0.0, SVG Export Plug-In . SVG Version: 6.00 Build 0)  -->
<svg version="1.1" id="Calque_1" xmlns="http://www.w3.org/2000/svg" xmlns:xlink="http://www.w3.org/1999/xlink" x="0px" y="0px"
	 viewBox="0 0 194 74" style="enable-background:new 0 0 194 74;" xml:space="preserve">
<style type="text/css">
	.st0{fill:none;stroke:#979797;stroke-width:0.3;}
</style>
<g id="Page-1">
	<g id="UI-Detection-2" transform="translate(-618.000000, -710.000000)">
		<g id="vehicle_tchek" transform="translate(619.000000, 711.000000)">
			<g id="central" transform="translate(0.000000, 57.000000)">
				<path id="Path-14" class="st0" d="M52-52.5c-5.3,0.9-8.6,2.6-10,5c-4.9,8.4-5,21.9-5,27c0,5.6,0.2,18.9,6,28
					c1.2,1.9,4.2,2.9,9,3l-4,3c-9.5-1.3-16.5-2.6-21-4S16.9,5.6,10,2L7-2.5l-1-21l1-14l2-5.3c7.4-4.3,13.4-7.2,18-8.7s11.6-2.8,21-4
					L52-52.5z"/>
				<path id="Path-15" class="st0" d="M82,6.5c-1.3-10.9-2-19.6-2-26s0.7-16.1,2-29l-30-4c-4.8,0.9-7.8,2.2-9,4c-5.9,9-6,21-6,27
					c0,5.7,0.6,20.1,6,29c1.3,2.1,4.3,3.1,9,3L82,6.5z"/>
				<rect id="CPT0" x="30.1" y="-43.4" class="st0" width="2.8" height="8.8"/>
				<rect id="CPT1" x="30.1" y="-25.4" class="st0" width="2.8" height="8.8"/>
				<rect id="CPT2" x="30.1" y="-7.4" class="st0" width="2.8" height="8.8"/>
				<rect id="CPT3" x="13.1" y="-35.4" class="st0" width="2.8" height="8.8"/>
				<rect id="CPT4" x="13.1" y="-17.4" class="st0" width="2.8" height="8.8"/>
				<rect id="TOI2" x="90.1" y="-43.4" class="st0" width="2.8" height="8.8"/>
				<rect id="TOI1" x="90.1" y="-25.4" class="st0" width="2.8" height="8.8"/>
				<rect id="TOI0" x="90.1" y="-7.4" class="st0" width="2.8" height="8.8"/>
				<rect id="TOI5" x="120.1" y="-43.4" class="st0" width="2.8" height="8.8"/>
				<rect id="TOI4" x="120.1" y="-25.4" class="st0" width="2.8" height="8.8"/>
				<rect id="TOI3" x="120.1" y="-7.4" class="st0" width="2.8" height="8.8"/>
				<rect id="TOI8" x="152.1" y="-43.4" class="st0" width="2.8" height="8.8"/>
				<rect id="TOI7" x="152.1" y="-25.4" class="st0" width="2.8" height="8.8"/>
				<rect id="TOI6" x="152.1" y="-7.4" class="st0" width="2.8" height="8.8"/>
				<path id="Path-16" class="st0" d="M82-48.5c8.9,1.1,19.2,1.7,31,2s30.4,0.3,56,0c1.2,9.5,1.9,17.1,2,23s-0.2,15.2-1,28
					c-26.2-0.4-45.5-0.4-58,0s-22.5,1.1-30,2c-1.3-11.1-2-19.8-2-26S80.7-35.4,82-48.5z"/>
				<path id="Path-17" class="st0" d="M169-46.5c1.2,10.3,1.9,18.3,2,24s-0.2,14.7-1,27c4.7-0.1,8-0.8,10-2s3.6-3.9,5-8
					c0.8-7,1.1-12.4,1-16s-0.4-9-1-16c-0.4-2.7-1.8-4.7-4-6S174.8-45.8,169-46.5z"/>
				<path id="PRBAV" class="st0" d="M82,6.5c-1.3-10.9-2-19.6-2-26s0.7-16.1,2-29l-30-4c-4.8,0.9-7.8,2.2-9,4c-5.9,9-6,21-6,27
					c0,5.7,0.6,20.1,6,29c1.3,2.1,4.3,3.1,9,3L82,6.5z"/>
				<path id="PRBAR" class="st0" d="M173.6-45.8c0.8,9.9,1.3,17.6,1.4,23.1c0.1,5.5-0.1,15-0.7,26.9c3.2-0.1,5.4-1.6,6.8-2.8
					c1.4-1.2,3.1-3.5,4-7.5c0.5-6.8,1-12,0.9-15.5s-0.6-8.9-1-15.6c-0.3-2.6-1.8-4.6-3.3-5.8C180.2-44.2,177.5-45.1,173.6-45.8z"/>
			</g>
		</g>
	</g>
</g>
</svg>
