<svg width="85" height="38" viewBox="0 0 85 38" fill="none" xmlns="http://www.w3.org/2000/svg">
<g id="tchekVehiclePatternBack">
<path id="Path-18" d="M65.8315 3.1168L80.1053 1C81.6307 2.69344 82.7204 4.17519 83.2652 5.12775C83.81 6.18615 84.2458 7.66792 84.3548 9.25552V27.9892C84.2458 31.0585 83.9189 33.0695 83.2652 34.2337C82.6114 35.398 81.3039 36.4564 79.1247 37.4089H9.38996C6.77491 36.9856 5.03154 36.2447 4.15985 35.2921C3.28817 34.3396 2.63441 32.2228 2.0896 29.0476L1 9.25552C1.10896 7.45624 1.43584 6.08031 2.0896 5.12775C2.74337 4.06935 4.05089 2.69344 6.2301 1C9.49892 1.42336 12.005 1.84672 13.5305 2.0584C15.0559 2.27008 17.0172 2.69344 19.3054 3.1168C29.7656 3.1168 37.5018 3.1168 42.7319 3.1168C47.853 3.1168 55.4802 3.1168 65.8315 3.1168Z" stroke="#979797" stroke-width="0.3"/>
<path id="Path-21" d="M72.805 10.4201C72.914 13.5953 72.914 15.9238 72.805 17.7231C72.6961 19.5224 72.2602 20.8983 71.7154 21.8509H14.5112C13.9664 19.7341 13.5305 18.0406 13.4216 16.6647C13.3126 15.2888 13.3126 13.2778 13.4216 10.4201L16.5814 9.36174L19.7413 3.11719H66.5943L69.7541 9.36174L72.805 10.4201Z" stroke="#979797" stroke-width="0.3"/>
<path id="Vector" d="M84.2461 29.1518L71.7156 25.9766H15.6009L2.08984 29.1518C2.74361 32.5386 3.39737 34.6554 4.16009 35.3963C4.92281 36.1372 6.66619 36.8781 9.3902 37.5131H79.1249C81.3041 36.3489 82.6117 35.2905 83.2654 34.3379C83.8102 33.3854 84.1371 31.5861 84.2461 29.1518Z" stroke="#979797" stroke-width="0.3"/>
<path id="Vector_2" d="M15.6016 37.5145H69.7549C68.6653 36.1385 67.6847 35.0801 66.5951 34.3393C65.5055 33.5984 63.4352 32.54 60.3843 31.1641H25.9528C23.1198 32.4341 21.0496 33.4925 19.7421 34.3393C18.4345 35.186 17.018 36.2444 15.6016 37.5145Z" stroke="#979797" stroke-width="0.3"/>
<path id="Vector_10" d="M19.7416 3.10472L16.5817 9.34927C13.5308 9.87847 11.4606 9.87847 10.371 9.34927C9.28137 8.82007 7.75592 7.44415 6.23047 5.22152V1.09375L19.7416 3.10472Z" stroke="#979797" stroke-width="0.3"/>
<path id="Vector_11" d="M80.1048 1V5.12775C78.5794 7.45623 77.054 8.72632 75.9644 9.25552C74.7658 9.78472 72.6955 9.78472 69.7536 9.25552L66.5938 3.01095L80.1048 1Z" stroke="#979797" stroke-width="0.3"/>
<g id="Group_30">
<path id="CFR" d="M46.4589 12.205V11.6758H45.9141H43.6259V9.34735V8.81815H43.0811H42.2094H41.6646V9.34735V11.6758H39.3765H38.8317V12.205V13.1576V13.6868H39.3765H41.6646V16.0153V16.5445H42.2094H43.0811H43.6259V16.0153V13.6868H45.9141H46.4589V13.1576V12.205ZM38.3958 16.862C36.1076 14.5335 36.1076 10.7233 38.3958 8.3948C40.684 6.06632 44.4976 6.06632 46.7858 8.3948C49.0739 10.7233 49.0739 14.5335 46.7858 16.862C44.4976 19.1905 40.7929 19.1905 38.3958 16.862Z" fill="black" stroke="black"/>
</g>
<g id="Group_24">
<path id="PHRARG" d="M19.4398 9.45504V8.92584H18.895H16.6068V6.59737V6.06817H16.062H15.1903H14.6455V6.59737V8.92584H12.3573H11.8125V9.45504V10.4076V10.9368H12.3573H14.6455V13.2653V13.7945H15.1903H16.062H16.6068V13.2653V10.9368H18.895H19.4398V10.4076V9.45504ZM11.4857 14.112C9.19749 11.7835 9.19749 7.97327 11.4857 5.6448C13.7738 3.31632 17.5874 3.31632 19.8756 5.6448C22.1638 7.97327 22.1638 11.7835 19.8756 14.112C17.4785 16.4405 13.7738 16.4405 11.4857 14.112Z" fill="black" stroke="black"/>
</g>
<g id="Group_25">
<path id="PHRARD" d="M74.4652 9.45504V8.92584H73.9204H71.6322V6.59737V6.06817H71.0874H70.2157H69.6709V6.59737V8.92584H67.3827H66.8379V9.45504V10.4076V10.9368H67.3827H69.6709V13.2653V13.7945H70.2157H71.0874H71.6322V13.2653V10.9368H73.9204H74.4652V10.4076V9.45504ZM66.511 14.112C64.2229 11.7835 64.2229 7.97327 66.511 5.6448C68.7992 3.31632 72.6128 3.31632 74.901 5.6448C77.1892 7.97327 77.1892 11.7835 74.901 14.112C72.6128 16.4405 68.7992 16.4405 66.511 14.112Z" fill="black" stroke="black"/>
</g>
<g id="Group_30_x5F_2">
<path id="PRCAR" d="M46.4589 27.7832V27.254H45.9141H43.6259V24.9255V24.3963H43.0811H42.2094H41.6646V24.9255V27.254H39.3765H38.8317V27.7832V28.7357V29.2649H39.3765H41.6646V31.5934V32.1226H42.2094H43.0811H43.6259V31.5934V29.2649H45.9141H46.4589V28.7357V27.7832ZM38.3958 32.4401C36.1076 30.1116 36.1076 26.3014 38.3958 23.9729C40.684 21.6444 44.4976 21.6444 46.7858 23.9729C49.0739 26.3014 49.0739 30.1116 46.7858 32.4401C44.4976 34.7686 40.7929 34.7686 38.3958 32.4401Z" fill="black" stroke="black"/>
</g>
<g id="Group_37">
<path id="ABRARD" d="M79.9159 27.7832V27.254H79.3711H77.0829V24.9255V24.3963H76.5381H75.6665H75.1217V24.9255V27.254H72.8335H72.2887V27.7832V28.7357V29.2649H72.8335H75.1217V31.5934V32.1226H75.6665H76.5381H77.0829V31.5934V29.2649H79.3711H79.9159V28.7357V27.7832ZM71.8528 32.4401C69.5647 30.1116 69.5647 26.3014 71.8528 23.9729C74.141 21.6444 77.9546 21.6444 80.2428 23.9729C82.531 26.3014 82.531 30.1116 80.2428 32.4401C77.9546 34.7686 74.25 34.7686 71.8528 32.4401Z" fill="black" stroke="black"/>
</g>
<g id="Group_38">
<path id="ABRARG" d="M13.0116 27.7832V27.254H12.4668H10.1787V24.9255V24.3963H9.63385H8.76217H8.21736V24.9255V27.254H5.9292H5.38439V27.7832V28.7357V29.2649H5.9292H8.21736V31.5934V32.1226H8.76217H9.63385H10.1787V31.5934V29.2649H12.4668H13.0116V28.7357V27.7832V27.7832ZM4.94855 32.4401C2.66038 30.1116 2.66038 26.3014 4.94855 23.9729C7.23672 21.6444 11.0503 21.6444 13.3385 23.9729C15.6267 26.3014 15.6267 30.1116 13.3385 32.4401C11.0503 34.7686 7.23672 34.7686 4.94855 32.4401Z" fill="black" stroke="black"/>
</g>
</g>
</svg>
