<svg width="201" height="76" viewBox="0 0 201 76" fill="none" xmlns="http://www.w3.org/2000/svg">
<g id="tchekVehiclePatternRight">
<g id="droite">
<path id="Path-28_2_" d="M199.037 37.5003C199.355 38.5899 199.778 40.3333 200.096 42.7304L200.096 57.3311L181.362 57.3311C181.468 52.9727 181.15 49.8128 180.304 47.9605C179.457 46.1082 177.763 44.0379 175.117 41.7498L182.42 35.539L193.851 36.6286L192.793 34.5584L196.921 33.4687C197.979 35.1032 198.72 36.4107 199.037 37.5003Z" stroke="#979797" stroke-width="0.3"/>
<path id="Path-29_2_" d="M199.033 37.5018C199.456 38.7003 199.88 40.5527 200.091 42.7319C200.303 44.9111 200.303 49.8143 200.091 57.3326L199.033 59.4028L179.241 62.5627C177.865 47.962 171.197 40.6616 159.449 40.6616C147.7 40.6616 142.091 47.962 142.832 62.5627L58.4774 61.4731C59.2183 46.8724 54.0321 39.3541 42.8131 38.5914C31.6999 37.8286 24.8203 44.4752 21.9627 58.3132L5.34579 57.2236C3.65235 55.1534 2.59395 53.41 2.17059 51.9935C1.53555 50.0322 0.900515 49.3785 1.11219 46.7634C1.32387 44.1484 2.17059 42.0781 3.22899 40.5526C3.86403 39.463 5.34579 38.8093 7.35674 38.4824L11.4845 28.0222L19.8459 25.9519C21.4335 24.9713 22.4919 24.4265 23.0211 23.8817C23.5503 23.3369 23.8678 22.6831 24.0795 21.8114L14.6597 21.8114L27.1488 4.15985C42.919 2.0896 56.149 0.999994 66.7329 0.999994C77.3169 0.999995 94.0396 2.0896 116.689 4.15985L115.631 7.3197C123.146 10.3706 128.649 12.7677 132.248 14.6201C135.846 16.4724 141.138 19.6322 147.912 23.9907C158.179 24.3175 166.222 25.0803 171.832 26.0609C177.441 27.0416 185.803 29.5477 196.81 33.3613C197.657 34.015 198.292 35.4315 199.033 37.5018Z" stroke="#979797" stroke-width="0.3"/>
<path id="Oval_14_" d="M26.1907 57.222C26.1907 65.8299 32.9645 72.8033 41.3258 72.8033C49.6872 72.8033 56.4609 65.8299 56.4609 57.222C56.4609 48.6141 49.6872 41.6406 41.3258 41.6406C32.9645 41.6406 26.1907 48.6141 26.1907 57.222Z" stroke="#979797" stroke-width="0.3"/>
<path id="Oval_13_" d="M30.32 57.5502C30.32 63.8699 35.1887 68.9911 41.2215 68.9911C47.2544 68.9911 52.123 63.8699 52.123 57.5502C52.123 51.2305 47.2544 46.1094 41.2215 46.1094C35.1887 46.1094 30.32 51.2305 30.32 57.5502Z" stroke="#979797" stroke-width="0.3"/>
<path id="Oval_12_" d="M144.841 59.2923C144.841 67.9002 151.615 74.8736 159.976 74.8736C168.338 74.8736 175.111 67.9002 175.111 59.2923C175.111 50.6844 168.338 43.7109 159.976 43.7109C151.615 43.7109 144.841 50.6844 144.841 59.2923Z" stroke="#979797" stroke-width="0.3"/>
<path id="Oval_11_" d="M149.078 59.2924C149.078 65.6121 153.946 70.7333 159.979 70.7333C166.012 70.7333 170.881 65.6121 170.881 59.2924C170.881 52.9727 166.012 47.8516 159.979 47.8516C153.946 47.8516 149.078 52.9727 149.078 59.2924Z" stroke="#979797" stroke-width="0.3"/>
<path id="Path-30_2_" d="M194.91 49.9214C195.651 49.9214 195.969 50.6841 195.969 51.9916C195.969 53.2992 195.651 54.0619 194.91 54.0619L187.607 54.0619C186.231 54.0619 185.491 52.9723 185.491 50.902C185.491 48.8318 186.549 47.7422 188.666 47.7422L194.91 49.9214Z" stroke="#979797" stroke-width="0.3"/>
<path id="Oval_10_" d="M186.544 51.0156C186.544 52.2141 187.496 53.0858 188.661 53.0858C189.825 53.0858 190.777 52.1052 190.777 51.0156C190.777 49.817 189.825 48.9453 188.661 48.9453C187.496 48.9453 186.544 49.817 186.544 51.0156Z" stroke="#979797" stroke-width="0.3"/>
<path id="Path-98" d="M182.415 35.4337C177.547 34.671 174.372 34.1262 172.996 33.3635C171.62 32.6008 170.879 32.2739 170.879 32.2739C173.948 31.4022 176.7 31.0753 179.24 31.1843C183.05 31.4022 186.543 31.947 189.612 33.2545C191.729 34.1262 192.999 35.1069 193.74 36.4144L182.415 35.4337Z" stroke="#979797" stroke-width="0.3"/>
<path id="Path-32_2_" d="M176.168 31.1796C175.215 31.2885 173.416 31.6154 170.981 32.2692C172.781 33.2498 174.474 33.9036 176.168 34.3394C177.861 34.7753 179.872 35.2111 182.412 35.429L175.109 41.6398C169.605 37.4993 162.938 36.0828 155.317 37.4993C147.697 38.8068 142.51 45.5623 139.653 57.2211C140.394 48.7222 140.711 42.4025 140.711 38.4799C140.711 34.5573 139.97 30.7437 138.594 27.0391C152.142 27.0391 161.456 27.4749 166.748 28.1287C171.934 28.7824 176.168 29.7631 179.237 31.2885C178.073 31.0706 177.014 31.0706 176.168 31.1796Z" stroke="#979797" stroke-width="0.3"/>
<path id="Rectangle_2_" d="M98.0582 57.3318C87.7917 57.2228 74.6676 56.787 58.5799 56.2422L58.5799 61.2544L142.723 62.344L142.723 57.3318C123.248 57.4408 108.325 57.4408 98.0582 57.3318Z" stroke="#979797" stroke-width="0.3"/>
<path id="Path-33_2_" d="M55.2979 42.623C52.4402 39.7901 49.3708 38.1557 45.8781 37.3929L45.8781 23.8818L56.2504 5.14062L89.59 5.14062C101.656 5.4675 111.816 7.21088 119.754 10.3707C127.798 13.5306 136.477 18.9786 145.791 27.0417L138.488 27.0417C139.758 29.4388 140.393 32.8166 140.605 37.3929C140.817 41.9693 140.393 48.5069 139.546 57.1148C118.802 57.2237 103.243 57.2237 92.6594 57.1148C82.1812 57.0058 71.3856 56.57 60.3782 56.0252C59.849 49.9234 58.1556 45.456 55.2979 42.623Z" stroke="#979797" stroke-width="0.3"/>
<path id="Path-34_2_" d="M89.6999 5.25L90.7583 22.9016C91.8167 25.6256 92.5576 29.4392 92.8751 34.3424C93.1927 39.2457 93.1927 46.8729 92.8751 57.2241" stroke="#979797" stroke-width="0.3"/>
<path id="Path-35_2_" d="M141.771 24.9723L140.713 26.0619L90.7566 22.902L48.1032 19.7422" stroke="#979797" stroke-width="0.3"/>
<path id="Vector_22" d="M114.676 10.3671C108.114 7.86097 100.494 6.55344 91.8151 6.22656L92.8734 21.8079L141.771 24.9678C130.341 17.6674 121.239 12.8732 114.676 10.3671Z" stroke="#979797" stroke-width="0.3"/>
<path id="Vector_23" d="M85.5703 6.22656L59.5337 6.22656L54.3475 18.757L85.5703 20.8273L85.5703 6.22656Z" stroke="#979797" stroke-width="0.3"/>
<path id="Vector_24" d="M134.471 23.8781L134.471 20.7182C133.836 20.1734 133.095 19.7376 132.354 19.6286C131.613 19.5196 130.237 19.5196 128.226 19.6286C128.12 21.0451 128.12 22.1347 128.226 22.7885C128.332 23.4422 128.65 23.987 129.285 24.8587L132.46 24.8587L134.471 23.8781Z" stroke="#979797" stroke-width="0.3"/>
<path id="Path-38_2_" d="M134.474 23.8828L132.358 24.9724L134.474 28.1323C135.639 28.3502 136.38 28.3502 136.591 28.1323C136.803 27.9143 136.803 27.1516 136.591 26.062L134.474 23.8828Z" stroke="#979797" stroke-width="0.3"/>
<path id="Vector_25" d="M105.369 31.7245C105.369 31.1797 103.252 31.1797 100.712 31.1797C98.172 31.1797 96.0552 31.1797 96.0552 31.7245C96.0552 32.2693 98.172 32.2693 100.712 32.2693C103.252 32.2693 105.369 32.2693 105.369 31.7245Z" stroke="#979797" stroke-width="0.3"/>
<path id="Vector_26" d="M56.3555 28.5682C56.3555 28.0234 54.2387 28.0234 51.6985 28.0234C49.0525 28.0234 47.0416 28.0234 47.0416 28.5682C47.0416 29.113 49.1583 29.113 51.6985 29.113C54.2387 29.113 56.3555 29.113 56.3555 28.5682Z" stroke="#979797" stroke-width="0.3"/>
<path id="Path-41_2_" d="M4.28665 39.5684C3.54577 39.8953 3.22825 40.3311 3.22825 40.658C3.65161 34.4473 4.07497 30.1978 4.28665 28.1276C4.49833 26.0573 5.23921 23.9871 6.40345 21.9168C9.57864 17.0136 12.013 13.5268 13.7064 11.4566C15.3998 9.49531 17.4108 7.42506 19.9509 5.24585L27.2539 4.15625L12.648 24.9677L7.46185 38.4788C6.08593 38.8057 5.02753 39.2415 4.28665 39.5684Z" stroke="#979797" stroke-width="0.3"/>
<path id="Path-97" d="M19.9523 26.0546C22.0691 25.2918 23.3392 23.9843 24.0801 21.9141L6.40482 21.9141C5.5581 23.5485 5.24058 25.0739 5.34642 26.0546C5.45226 27.1442 5.87562 28.1248 6.40482 29.2144C13.3903 27.7979 17.8355 26.7083 19.9523 26.0546Z" stroke="#979797" stroke-width="0.3"/>
<path id="Path-93" d="M13.7025 11.4567C12.1149 13.309 10.4215 15.7061 8.51637 18.757L12.6441 17.6674L18.8887 9.38643L18.8887 6.22656C16.9836 7.75201 15.1843 9.60434 13.7025 11.4567Z" stroke="#979797" stroke-width="0.3"/>
<path id="Path-92" d="M138.598 14.6165C134.258 12.3283 126.955 8.84155 116.689 4.15625L115.631 7.3161C124.204 10.8028 130.448 13.5269 134.364 15.5971C138.28 17.6673 142.831 20.3914 147.912 23.8781L154.156 23.8781C148.229 19.9555 143.043 16.9046 138.598 14.6165Z" stroke="#979797" stroke-width="0.3"/>
<path id="Path-44_2_" d="M56.3555 5.25L31.3772 8.40985C30.848 8.73673 30.4247 9.06361 30.3188 9.49945C30.213 9.93529 30.213 10.698 30.3188 11.5697C32.6473 14.0758 34.2349 15.8192 35.505 16.7998C36.7751 17.7805 38.4685 18.7611 40.6912 19.9597L47.9941 19.9597L45.8773 24.1002L45.8773 37.6113C39.2094 37.0665 34.0232 37.7202 30.213 39.6815C26.5086 41.6428 23.6509 44.3668 21.8516 47.9625L1.00119 46.8729" stroke="#979797" stroke-width="0.3"/>
<path id="Vector_27" d="M55.2969 7.32031L34.023 10.2623C32.2238 10.3712 31.5887 10.8071 32.3296 11.4608C33.388 12.5504 33.9172 12.9863 34.4464 13.5311C35.399 14.5117 37.1982 15.8192 39.6326 17.6716L49.0523 17.6716L55.2969 7.32031Z" stroke="#979797" stroke-width="0.3"/>
</g>
<g id="Group_47">
<path id="AILAVD" d="M149.807 39.1777L150.336 39.1777L150.336 38.6328L150.336 36.3447L152.665 36.3447L153.194 36.3447L153.194 35.7999L153.194 34.9282L153.194 34.3834L152.665 34.3834L150.336 34.3834L150.336 32.0952L150.336 31.5504L149.807 31.5504L148.854 31.5504L148.325 31.5504L148.325 32.0952L148.325 34.3834L145.997 34.3834L145.468 34.3834L145.468 34.9282L145.468 35.7999L145.468 36.3447L145.997 36.3447L148.325 36.3447L148.325 38.6328L148.325 39.1777L148.854 39.1777L149.807 39.1777ZM145.044 31.1146C147.373 28.8264 151.183 28.8264 153.511 31.1146C155.84 33.4027 155.84 37.2163 153.511 39.5045C151.183 41.7927 147.373 41.7927 145.044 39.5045C142.716 37.2163 142.716 33.4027 145.044 31.1146Z" fill="black" stroke="black"/>
</g>
<g id="Group_19">
<path id="PRCAVD" d="M186.629 48.8808L187.158 48.8808L187.158 48.336L187.158 46.0478L189.487 46.0478L190.016 46.0478L190.016 45.503L190.016 44.6313L190.016 44.0865L189.487 44.0865L187.158 44.0865L187.158 41.7983L187.158 41.2535L186.629 41.2535L185.676 41.2535L185.147 41.2535L185.147 41.7983L185.147 44.0865L182.819 44.0865L182.29 44.0865L182.29 44.6313L182.29 45.503L182.29 46.0478L182.819 46.0478L185.147 46.0478L185.147 48.336L185.147 48.8808L185.676 48.8808L186.629 48.8808ZM181.972 40.8177C184.3 38.5295 188.111 38.5295 190.439 40.8177C192.768 43.1059 192.768 46.9195 190.439 49.2076C188.111 51.4958 184.3 51.4958 181.972 49.2076C179.644 46.9195 179.644 43.1059 181.972 40.8177Z" fill="black" stroke="black"/>
</g>
<g id="Group_23">
<path id="BDCD" d="M92.3321 61.7792L92.8613 61.7792L92.8613 61.2344L92.8613 58.9462L95.1898 58.9462L95.719 58.9462L95.719 58.4014L95.719 57.5297L95.719 56.9849L95.1898 56.9849L92.8613 56.9849L92.8613 54.6968L92.8613 54.152L92.3321 54.152L91.3795 54.152L90.8503 54.152L90.8503 54.6968L90.8503 56.9849L88.5218 56.9849L87.9926 56.9849L87.9926 57.5297L87.9926 58.4014L87.9926 58.9462L88.5218 58.9462L90.8503 58.9462L90.8503 61.2344L90.8503 61.7792L91.3795 61.7792L92.3321 61.7792ZM87.6751 53.7161C90.0036 51.428 93.8138 51.428 96.1423 53.7161C98.4708 56.0043 98.4708 59.8179 96.1423 62.1061C93.8138 64.3943 90.0036 64.3943 87.6751 62.1061C85.3466 59.8179 85.3466 56.1133 87.6751 53.7161Z" fill="black" stroke="black"/>
</g>
<g id="Group_48">
<path id="PRTARD" d="M68.4121 46.7011L68.9413 46.7011L68.9413 46.1563L68.9413 43.8681L71.2698 43.8681L71.799 43.8681L71.799 43.3233L71.799 42.4516L71.799 41.9068L71.2698 41.9068L68.9413 41.9068L68.9413 39.6186L68.9413 39.0738L68.4121 39.0738L67.4596 39.0738L66.9304 39.0738L66.9304 39.6186L66.9304 41.9068L64.6019 41.9068L64.0727 41.9068L64.0727 42.4516L64.0727 43.3233L64.0727 43.8681L64.6019 43.8681L66.9304 43.8681L66.9304 46.1563L66.9304 46.7011L67.4596 46.7011L68.4121 46.7011ZM63.7552 38.638C66.0837 36.3498 69.8939 36.3498 72.2224 38.638C74.5509 40.9262 74.5509 44.7398 72.2224 47.028C69.8939 49.3161 66.0837 49.3161 63.7552 47.028C61.4267 44.7398 61.4267 41.0351 63.7552 38.638Z" fill="black" stroke="black"/>
</g>
<g id="Group_49">
<path id="PRTAVD" d="M116.147 46.7011L116.676 46.7011L116.676 46.1563L116.676 43.8681L119.004 43.8681L119.533 43.8681L119.533 43.3233L119.533 42.4516L119.533 41.9068L119.004 41.9068L116.676 41.9068L116.676 39.6186L116.676 39.0738L116.147 39.0738L115.194 39.0738L114.665 39.0738L114.665 39.6186L114.665 41.9068L112.336 41.9068L111.807 41.9068L111.807 42.4516L111.807 43.3233L111.807 43.8681L112.336 43.8681L114.665 43.8681L114.665 46.1563L114.665 46.7011L115.194 46.7011L116.147 46.7011ZM111.49 38.638C113.818 36.3498 117.628 36.3498 119.957 38.638C122.285 40.9262 122.285 44.7398 119.957 47.028C117.628 49.3161 113.818 49.3161 111.49 47.028C109.161 44.7398 109.161 41.0351 111.49 38.638Z" fill="black" stroke="black"/>
</g>
<g id="Group_50">
<path id="PGNAVD" d="M103.147 38.0917L103.676 38.0917L103.676 37.5469L103.676 35.2587L106.004 35.2587L106.533 35.2587L106.533 34.7139L106.533 33.8422L106.533 33.2974L106.004 33.2974L103.676 33.2974L103.676 31.0093L103.676 30.4645L103.147 30.4645L102.194 30.4645L101.665 30.4645L101.665 31.0093L101.665 33.2974L99.3363 33.2974L98.8071 33.2974L98.8071 33.8422L98.8071 34.7139L98.8071 35.2587L99.3363 35.2587L101.665 35.2587L101.665 37.5469L101.665 38.0917L102.194 38.0917L103.147 38.0917ZM98.4896 30.0286C100.818 27.7405 104.628 27.7405 106.957 30.0286C109.285 32.3168 109.285 36.1304 106.957 38.4186C104.628 40.7068 100.818 40.7068 98.4896 38.4186C96.1611 36.1304 96.1611 32.3168 98.4896 30.0286Z" fill="black" stroke="black"/>
</g>
<g id="Group_51">
<path id="PGNARD" d="M52.1153 38.0917L52.6445 38.0917L52.6445 37.5469L52.6445 35.2587L54.973 35.2587L55.5022 35.2587L55.5022 34.7139L55.5022 33.8422L55.5022 33.2974L54.973 33.2974L52.6445 33.2974L52.6445 31.0093L52.6445 30.4645L52.1153 30.4645L51.1627 30.4645L50.6335 30.4645L50.6335 31.0093L50.6335 33.2974L48.305 33.2974L47.7758 33.2974L47.7758 33.8422L47.7758 34.7139L47.7758 35.2587L48.305 35.2587L50.6335 35.2587L50.6335 37.5469L50.6335 38.0917L51.2686 38.0917L52.1153 38.0917ZM47.4583 30.0286C49.7868 27.7405 53.597 27.7405 55.9255 30.0286C58.254 32.3168 58.254 36.1304 55.9255 38.4186C53.597 40.7068 49.7868 40.7068 47.4583 38.4186C45.1298 36.1304 45.1298 32.3168 47.4583 30.0286Z" fill="black" stroke="black"/>
</g>
<g id="Group_26_x5F_2">
<path id="PRCARD" d="M13.3321 59.6698L13.8613 59.6698L13.8613 59.125L13.8613 56.8369L16.1897 56.8369L16.7189 56.8369L16.7189 56.2921L16.7189 55.4204L16.7189 54.8756L16.1897 54.8756L13.8613 54.8756L13.8613 52.5874L13.8613 52.0426L13.3321 52.0426L12.3795 52.0426L11.8503 52.0426L11.8503 52.5874L11.8503 54.8756L9.52184 54.8756L8.99264 54.8756L8.99264 55.4204L8.99264 56.2921L8.99264 56.8369L9.52184 56.8369L11.8503 56.8369L11.8503 59.125L11.8503 59.6698L12.3795 59.6698L13.3321 59.6698ZM8.67512 51.6068C11.0036 49.3186 14.8138 49.3186 17.1423 51.6068C19.4708 53.8949 19.4708 57.7085 17.1423 59.9967C14.8138 62.2849 11.0036 62.2849 8.67512 59.9967C6.34664 57.7085 6.34664 54.0039 8.67512 51.6068Z" fill="black" stroke="black"/>
</g>
<g id="Group_27_x5F_2">
<path id="AILARD" d="M26.0762 34.8261L26.6054 34.8261L26.6054 34.2813L26.6054 31.9931L28.9339 31.9931L29.4631 31.9931L29.4631 31.4483L29.4631 30.5766L29.4631 30.0318L28.9339 30.0318L26.6054 30.0318L26.6054 27.7437L26.6054 27.1989L26.0762 27.1989L25.1237 27.1989L24.5945 27.1989L24.5945 27.7437L24.5945 30.0318L22.266 30.0318L21.7368 30.0318L21.7368 30.5766L21.7368 31.4483L21.7368 31.9931L22.266 31.9931L24.5945 31.9931L24.5945 34.2813L24.5945 34.8261L25.1237 34.8261L26.0762 34.8261ZM21.4193 26.763C23.7477 24.4748 27.558 24.4748 29.8865 26.763C32.2149 29.0512 32.2149 32.8648 29.8865 35.153C27.558 37.4411 23.7477 37.4411 21.4193 35.153C19.0908 32.8648 19.0908 29.1601 21.4193 26.763Z" fill="black" stroke="black"/>
</g>
<g id="Group_39">
<path id="CSTARD" d="M36.9789 17.4984L37.5081 17.4984L37.5081 16.9536L37.5081 14.6654L39.8366 14.6654L40.3658 14.6654L40.3658 14.1206L40.3658 13.2489L40.3658 12.7041L39.8366 12.7041L37.5081 12.7041L37.5081 10.4159L37.5081 9.87114L36.9789 9.87114L36.0264 9.87114L35.4972 9.87114L35.4972 10.4159L35.4972 12.7041L33.1687 12.7041L32.6395 12.7041L32.6395 13.2489L32.6395 14.1206L32.6395 14.6654L33.1687 14.6654L35.4972 14.6654L35.4972 16.9536L35.4972 17.4984L36.0264 17.4984L36.9789 17.4984ZM32.2161 9.54425C34.5446 7.25608 38.3549 7.25608 40.6833 9.54425C43.0118 11.8324 43.0118 15.6461 40.6833 17.9342C38.3548 20.2224 34.5446 20.2224 32.2161 17.9342C29.8877 15.6461 29.8877 11.8324 32.2161 9.54425Z" fill="black" stroke="black"/>
</g>
<g id="Group_41">
<path id="VTRARD" d="M68.4121 17.4984L68.9413 17.4984L68.9413 16.9536L68.9413 14.6654L71.2698 14.6654L71.799 14.6654L71.799 14.1206L71.799 13.2489L71.799 12.7041L71.2698 12.7041L68.9413 12.7041L68.9413 10.4159L68.9413 9.87114L68.4121 9.87114L67.4596 9.87114L66.9304 9.87114L66.9304 10.4159L66.9304 12.7041L64.6019 12.7041L64.0727 12.7041L64.0727 13.2489L64.0727 14.1206L64.0727 14.6654L64.6019 14.6654L66.9304 14.6654L66.9304 16.9536L66.9304 17.4984L67.4596 17.4984L68.4121 17.4984ZM63.7552 9.54425C66.0837 7.25608 69.8939 7.25608 72.2224 9.54425C74.5509 11.8324 74.5509 15.6461 72.2224 17.9342C69.8939 20.2224 66.0837 20.2224 63.7552 17.9342C61.4267 15.6461 61.4267 11.8324 63.7552 9.54425Z" fill="black" stroke="black"/>
</g>
<g id="Group_42">
<path id="VTRAVD" d="M99.8575 20.7718L100.387 20.7718L100.387 20.227L100.387 17.9388L102.715 17.9388L103.244 17.9388L103.244 17.394L103.244 16.5224L103.244 15.9776L102.715 15.9776L100.387 15.9776L100.387 13.6894L100.387 13.1446L99.8575 13.1446L98.9049 13.1446L98.3757 13.1446L98.3757 13.6894L98.3757 15.9776L96.0472 15.9776L95.518 15.9776L95.518 16.5224L95.518 17.394L95.518 17.9388L96.0472 17.9388L98.3757 17.9388L98.3757 20.227L98.3757 20.7718L98.9049 20.7718L99.8575 20.7718ZM95.2005 12.8177C97.529 10.5295 101.339 10.5295 103.668 12.8177C105.996 15.1059 105.996 18.9195 103.668 21.2077C101.339 23.4958 97.529 23.4958 95.2005 21.2077C92.872 18.8105 92.872 15.1059 95.2005 12.8177Z" fill="black" stroke="black"/>
</g>
<g id="Group_43">
<path id="RTRD" d="M121.545 25.1308L122.074 25.1308L122.074 24.586L122.074 22.2978L124.403 22.2978L124.932 22.2978L124.932 21.753L124.932 20.8813L124.932 20.3365L124.403 20.3365L122.074 20.3365L122.074 18.0483L122.074 17.5035L121.545 17.5035L120.592 17.5035L120.063 17.5035L120.063 18.0483L120.063 20.3365L117.735 20.3365L117.206 20.3365L117.206 20.8813L117.206 21.753L117.206 22.2978L117.735 22.2978L120.063 22.2978L120.063 24.586L120.063 25.1308L120.592 25.1308L121.545 25.1308ZM116.888 17.0677C119.216 14.7795 123.027 14.7795 125.355 17.0677C127.684 19.3559 127.684 23.1695 125.355 25.4576C123.027 27.7458 119.216 27.7458 116.888 25.4576C114.56 23.1695 114.56 19.4648 116.888 17.0677Z" fill="black" stroke="black"/>
</g>
<g id="Group_14">
<path id="ROUAVD" d="M160.715 63.5374L161.244 63.5374L161.244 62.9926L161.244 60.7045L163.573 60.7045L164.102 60.7045L164.102 60.1597L164.102 59.288L164.102 58.7432L163.573 58.7432L161.244 58.7432L161.244 56.455L161.244 55.9102L160.715 55.9102L159.762 55.9102L159.233 55.9102L159.233 56.455L159.233 58.7432L156.905 58.7432L156.375 58.7432L156.375 59.288L156.375 60.1597L156.375 60.7045L156.905 60.7045L159.233 60.7045L159.233 62.9926L159.233 63.5374L159.762 63.5374L160.715 63.5374ZM156.058 55.5833C158.386 53.2951 162.197 53.2951 164.525 55.5833C166.854 57.8715 166.854 61.6851 164.525 63.9733C162.197 66.2614 158.386 66.2614 156.058 63.9733C153.729 61.6851 153.729 57.8715 156.058 55.5833Z" fill="black" stroke="black"/>
</g>
<path id="ROUARD" d="M41.8207 61.5374L42.3499 61.5374L42.3499 60.9926L42.3499 58.7045L44.6784 58.7045L45.2076 58.7045L45.2076 58.1597L45.2076 57.288L45.2076 56.7432L44.6784 56.7432L42.3499 56.7432L42.3499 54.455L42.3499 53.9102L41.8207 53.9102L40.8682 53.9102L40.339 53.9102L40.339 54.455L40.339 56.7432L38.0105 56.7432L37.4813 56.7432L37.4813 57.288L37.4813 58.1597L37.4813 58.7045L38.0105 58.7045L40.339 58.7045L40.339 60.9926L40.339 61.5374L40.8682 61.5374L41.8207 61.5374ZM37.0579 53.5833C39.3864 51.2951 43.1966 51.2951 45.5251 53.5833C47.8536 55.8715 47.8536 59.6851 45.5251 61.9733C43.1966 64.2614 39.3864 64.2614 37.0579 61.9733C34.7295 59.6851 34.7295 55.8715 37.0579 53.5833Z" fill="black" stroke="black"/>
</g>
</svg>
