<?xml version="1.0" encoding="utf-8"?>
<!-- Generator: Adobe Illustrator 24.0.0, SVG Export Plug-In . SVG Version: 6.00 Build 0)  -->
<svg version="1.1" id="Calque_1" xmlns="http://www.w3.org/2000/svg" xmlns:xlink="http://www.w3.org/1999/xlink" x="0px" y="0px"
	 viewBox="0 0 194 74" style="enable-background:new 0 0 194 74;" xml:space="preserve">
<style type="text/css">
	.st0{fill:none;stroke:#979797;stroke-width:0.3;}
</style>
<g id="Page-1">
	<g id="UI-Detection-2" transform="translate(-618.000000, -710.000000)">
		<g id="vehicle_tchek" transform="translate(619.000000, 711.000000)">
			<g id="droite" transform="translate(23.000000, 122.000000)">
				<path id="Path-28_2_" class="st0" d="M167.4-86.5c0.3,1,0.7,2.7,1,5v14h-18c0.1-4.2-0.2-7.2-1-9s-2.4-3.8-5-6l7-6l11,1l-1-2l4-1
					C166.4-88.8,167.1-87.5,167.4-86.5z"/>
				<path id="Path-29_2_" class="st0" d="M167.4-86.5c0.4,1.1,0.8,2.9,1,5s0.2,6.8,0,14l-1,2l-19,3c-1.3-14-7.7-21-19-21
					s-16.7,7-16,21l-81-1c0.7-14-4.3-21.3-15-22s-17.3,5.7-20,19l-16-1c-1.6-2-2.6-3.7-3-5c-0.6-1.9-1.2-2.5-1-5s1-4.5,2-6
					c0.6-1,2-1.7,4-2l4-10l8-2c1.5-0.9,2.5-1.5,3-2s0.8-1.1,1-2h-9l12-17c15.1-2,27.8-3,38-3s26.2,1,48,3l-1,3
					c7.2,2.9,12.5,5.2,16,7s8.5,4.8,15,9c9.9,0.3,17.6,1,23,2c5.4,1,13.4,3.4,24,7C166.1-89.8,166.7-88.5,167.4-86.5z"/>
				<ellipse id="Oval_14_" class="st0" cx="15.9" cy="-67.5" rx="14.5" ry="15"/>
				<ellipse id="Oval_13_" class="st0" cx="15.9" cy="-67.5" rx="10.5" ry="11"/>
				<ellipse id="Oval_12_" class="st0" cx="129.9" cy="-65.5" rx="14.5" ry="15"/>
				<ellipse id="Oval_11_" class="st0" cx="129.9" cy="-65.5" rx="10.5" ry="11"/>
				<ellipse id="ROUAVD" class="st0" cx="129.9" cy="-65.5" rx="4.5" ry="5"/>
				<ellipse id="ROUARD" class="st0" cx="15.9" cy="-67.5" rx="4.5" ry="5"/>
				<path id="Path-30_2_" class="st0" d="M163.4-74.5c0.7,0,1,0.7,1,2s-0.3,2-1,2h-7c-1.3,0-2-1-2-3s1-3,3-3L163.4-74.5z"/>
				<ellipse id="Oval_10_" class="st0" cx="157.4" cy="-73.5" rx="2" ry="2"/>
				<path id="Path-98" class="st0" d="M151.4-88.5c-4.7-0.7-7.7-1.3-9-2s-2-1-2-1c2.9-0.8,5.6-1.1,8-1c3.7,0.2,7,0.7,10,2
					c2,0.8,3.3,1.8,4,3L151.4-88.5z"/>
				<path id="Path-32_2_" class="st0" d="M145.4-92.5c-0.9,0.1-2.6,0.4-5,1c1.7,0.9,3.4,1.6,5,2c1.6,0.4,3.6,0.8,6,1l-7,6
					c-5.3-4-11.7-5.3-19-4s-12.3,7.7-15,19c0.7-8.2,1-14.2,1-18s-0.7-7.4-2-11c13,0,22,0.4,27,1c5,0.6,9,1.6,12,3
					C147.3-92.6,146.3-92.6,145.4-92.5z"/>
				<path id="Rectangle_2_" class="st0" d="M70.4-67.4c-9.9-0.1-22.5-0.5-37.9-1v4.8l80.8,1v-4.8C94.6-67.3,80.3-67.3,70.4-67.4z"/>
				<path id="Path-33_2_" class="st0" d="M29.4-81.5c-2.7-2.7-5.7-4.3-9-5v-13l10-18h32c11.6,0.3,21.3,2,29,5s16.1,8.3,25,16h-7
					c1.2,2.3,1.8,5.6,2,10c0.2,4.4-0.2,10.7-1,19c-19.9,0.1-34.9,0.1-45,0s-20.4-0.5-31-1C33.7-74.5,32.1-78.8,29.4-81.5z"/>
				<path id="Path-34_2_" class="st0" d="M62.4-117.5l1,17c1,2.6,1.7,6.3,2,11s0.3,12,0,22"/>
				<polyline id="Path-35_2_" class="st0" points="112.4,-98.5 111.4,-97.5 63.4,-100.5 22.4,-103.5 				"/>
				<path id="RTRD" class="st0" d="M105.4-99.5v-3c-0.6-0.5-1.3-0.9-2-1c-0.7-0.1-2-0.1-4,0c-0.1,1.4-0.1,2.4,0,3s0.4,1.2,1,2h3
					L105.4-99.5z"/>
				<path id="VTRAVD" class="st0" d="M86.4-112.5c-6.3-2.4-13.6-3.7-22-4l1,15l47,3C101.4-105.5,92.7-110.1,86.4-112.5z"/>
				<polygon id="VTRARD" class="st0" points="58.4,-116.5 33.4,-116.5 28.4,-104.5 58.4,-102.5 				"/>
				<path id="Path-38_2_" class="st0" d="M105.4-99.5l-2,1l2,3c1.1,0.2,1.8,0.2,2,0s0.2-0.9,0-2L105.4-99.5z"/>
				<path id="PGNAVD" class="st0" d="M77.4-92c0-0.5-2-0.5-4.5-0.5s-4.5,0-4.5,0.5s2,0.5,4.5,0.5S77.4-91.5,77.4-92z"/>
				<path id="PGNARD" class="st0" d="M30.4-95c0-0.5-2-0.5-4.5-0.5s-4.5,0-4.5,0.5s2,0.5,4.5,0.5S30.4-94.5,30.4-95z"/>
				<path id="Path-41_2_" class="st0" d="M-19.6-84.5c-0.7,0.3-1,0.7-1,1c0.4-6,0.8-10,1-12s0.9-4,2-6c3.1-4.7,5.4-8.1,7-10
					s3.6-3.9,6-6l7-1l-14,20l-5,13C-17.9-85.2-18.9-84.8-19.6-84.5z"/>
				<path id="Path-97" class="st0" d="M-4.6-97.5c2-0.7,3.3-2,4-4h-17c-0.8,1.6-1.1,3-1,4s0.5,2,1,3C-10.9-95.8-6.6-96.8-4.6-97.5z"
					/>
				<path id="Path-93" class="st0" d="M-10.6-111.5c-1.5,1.8-3.2,4.1-5,7l4-1l6-8v-3C-7.4-115-9.1-113.3-10.6-111.5z"/>
				<path id="Path-92" class="st0" d="M109.4-108.5c-4.2-2.2-11.2-5.5-21-10l-1,3c8.2,3.4,14.2,6,18,8c3.8,2,8.1,4.6,13,8h6
					C118.6-103.3,113.6-106.3,109.4-108.5z"/>
				<path id="Path-44_2_" class="st0" d="M30.4-117.5l-24,3c-0.5,0.3-0.9,0.6-1,1s-0.1,1.1,0,2c2.2,2.4,3.8,4.1,5,5s2.8,1.9,5,3h7
					l-2,4v13C14-87,9-86.4,5.4-84.5s-6.3,4.5-8,8l-20-1"/>
				<path id="CSTARD" class="st0" d="M29.4-115.5L9-112.7c-1.7,0.1-2.3,0.5-1.6,1.2c1,1,1.5,1.5,2,2c0.9,0.9,2.6,2.2,5,4h9
					L29.4-115.5z"/>
				<rect id="AILAVD" x="125.5" y="-92.4" class="st0" width="8.8" height="2.8"/>
				<rect id="PRCAV0" x="152.5" y="-82.4" class="st0" width="8.8" height="2.8"/>
				<rect id="PRTAVD0" x="95.5" y="-92.4" class="st0" width="8.8" height="2.8"/>
				<rect id="PRTAVD2" x="95.5" y="-75.4" class="st0" width="8.8" height="2.8"/>
				<rect id="PRTAVD1" x="71.5" y="-89.4" class="st0" width="8.8" height="2.8"/>
				<rect id="PRTAVD3" x="71.5" y="-75.4" class="st0" width="8.8" height="2.8"/>
				<rect id="BDCD0" x="84.5" y="-66.4" class="st0" width="8.8" height="2.8"/>
				<rect id="BDCD1" x="42.5" y="-67.4" class="st0" width="8.8" height="2.8"/>
				<rect id="PRTARD0" x="49.5" y="-92.4" class="st0" width="8.8" height="2.8"/>
				<rect id="PRTARD2" x="49.5" y="-75.4" class="st0" width="8.8" height="2.8"/>
				<rect id="PRTARD1" x="32.5" y="-99.4" class="st0" width="8.8" height="2.8"/>
				<rect id="PRTARD3" x="32.5" y="-82.4" class="st0" width="8.8" height="2.8"/>
				<rect id="AILARD0" x="6.5" y="-99.4" class="st0" width="8.8" height="2.8"/>
				<rect id="AILARD1" x="-13.5" y="-84.4" class="st0" width="8.8" height="2.8"/>
				<rect id="PRCAR4" x="-15.5" y="-72.4" class="st0" width="8.8" height="2.8"/>
			</g>
		</g>
	</g>
</g>
</svg>
