<svg width="200" height="250" viewBox="0 0 200 250" fill="none" xmlns="http://www.w3.org/2000/svg">
<g id="tchekVehiclePatternCompare1">
<g id="Page-1">
<g id="UI-Detection-2">
<g id="vehicle_tchek">
<g id="Group 6">
<g id="central">
<path id="Path-12" d="M123.956 5H137.972L139.018 7.03214L140.064 27.0487L135.043 30.0969H123.014C115.274 31.2145 109.207 31.9258 105.023 32.129C100.839 32.3322 94.5624 32.3322 86.0897 32.129L77.6169 30.0969H66.1107L61.0898 27.0487L62.1359 7.03214L64.1233 5H76.1525L77.1985 7.03214H123.014L123.956 5Z" stroke="#979797" stroke-width="0.3"/>
<path id="Path-13" d="M78.9772 14.9553L100.944 13.9393L122.178 14.9553L122.91 11.9071C123.015 11.5007 123.015 11.0943 122.91 10.8911C122.805 10.6879 122.596 10.2814 122.178 9.875H78.9772C78.5588 10.1798 78.1404 10.5862 77.9312 10.8911C77.722 11.1959 77.5128 11.6023 77.4082 11.9071L78.9772 14.9553Z" stroke="#979797" stroke-width="0.3"/>
<path id="Path-14" d="M132.01 77.9575C131.068 72.674 129.395 69.3209 126.989 68.0001C118.621 63.1229 105.127 63.0213 100.001 63.0213C94.4576 63.0213 81.1731 63.2245 72.0728 69.0161C70.1899 70.2354 69.1439 73.182 69.0393 78.0591L66.0059 74.0965C67.2611 64.647 68.6209 57.6362 69.9807 53.0639C71.3406 48.5932 73.851 43.0048 77.5121 36.0955L82.0099 33.0473L103.035 32.0312L117.052 33.0473L122.386 35.0795C126.675 42.4967 129.604 48.4916 131.068 53.0639C132.533 57.6362 133.892 64.647 135.043 74.0965L132.01 77.9575Z" stroke="#979797" stroke-width="0.3"/>
<path id="Path-15" d="M73.0143 107.926C83.8929 106.605 92.5749 105.894 98.9556 105.894C105.336 105.894 115.064 106.605 127.93 107.926L131.905 77.9519C130.964 73.1764 129.709 70.1281 127.93 68.9089C118.935 63.0157 106.905 62.9141 100.943 62.9141C95.2945 62.9141 80.8595 63.5237 71.9683 68.9089C69.8763 70.2298 68.8303 73.1764 68.9349 77.9519L73.0143 107.926Z" stroke="#979797" stroke-width="0.3"/>
<path id="Path-16" d="M127.93 107.923C126.779 116.864 126.256 127.126 125.942 138.913C125.628 150.699 125.628 169.293 125.942 194.898C116.423 196.117 108.892 196.829 102.93 196.93C97.0721 197.032 87.7625 196.727 75.0011 195.914C75.4195 169.7 75.4195 150.394 75.0011 137.897C74.5827 125.399 73.8505 115.442 73.0137 107.923C84.1015 106.602 92.7834 105.891 98.9549 105.891C105.231 105.992 114.854 106.703 127.93 107.923Z" stroke="#979797" stroke-width="0.3"/>
<path id="Path-17" d="M125.943 195.008C115.692 196.227 107.638 196.938 101.989 197.04C96.3407 197.142 87.345 196.837 75.002 196.024C75.1066 200.698 75.8388 204.051 76.9894 205.981C78.14 208.013 80.8597 209.538 84.9391 210.96C91.9475 211.773 97.2822 212.078 100.943 211.976C104.5 211.875 109.939 211.57 116.947 210.96C119.667 210.554 121.654 209.131 122.91 206.997C124.269 204.762 125.315 200.799 125.943 195.008Z" stroke="#979797" stroke-width="0.3"/>
<path id="Path-18" d="M122.281 211.977L135.984 209.945C137.448 211.571 138.494 212.994 139.017 213.908C139.54 214.924 139.959 216.347 140.063 217.871V235.855C139.959 238.802 139.645 240.732 139.017 241.85C138.39 242.968 137.135 243.984 135.042 244.898H68.0973C65.5869 244.492 63.9132 243.78 63.0764 242.866C62.2396 241.951 61.612 239.919 61.089 236.871L60.043 217.871C60.1476 216.143 60.4614 214.822 61.089 213.908C61.7166 212.892 62.9718 211.571 65.0639 209.945C68.2019 210.352 70.6078 210.758 72.0722 210.961C73.5366 211.165 75.4194 211.571 77.6161 211.977C87.6579 211.977 95.0846 211.977 100.105 211.977C105.022 211.977 112.344 211.977 122.281 211.977Z" stroke="#979797" stroke-width="0.3"/>
<path id="Path-21" d="M128.975 218.987C129.08 222.036 129.08 224.271 128.975 225.998C128.871 227.726 128.452 229.046 127.929 229.961H73.0131C72.4901 227.929 72.0717 226.303 71.9671 224.982C71.8625 223.661 71.8625 221.731 71.9671 218.987L75.0006 217.971L78.034 211.977H123.013L126.046 217.971L128.975 218.987Z" stroke="#979797" stroke-width="0.3"/>
<path id="Vector" d="M139.96 236.97L127.93 233.922H74.0605L61.0898 236.97C61.7175 240.221 62.3451 242.254 63.0773 242.965C63.8095 243.676 65.4831 244.387 68.0982 244.997H135.043C137.135 243.879 138.391 242.863 139.018 241.949C139.541 241.034 139.855 239.307 139.96 236.97Z" stroke="#979797" stroke-width="0.3"/>
<path id="Vector_2" d="M74.0605 245.003H126.048C125.002 243.682 124.06 242.666 123.014 241.954C121.968 241.243 119.981 240.227 117.052 238.906H83.9977C81.2781 240.126 79.2906 241.142 78.0354 241.954C76.7802 242.767 75.4204 243.783 74.0605 245.003Z" stroke="#979797" stroke-width="0.3"/>
<path id="Vector_3" d="M122.281 30.0009C125.315 28.68 127.511 27.9688 128.976 27.9688C130.44 27.9688 132.218 28.68 133.997 30.0009C134.938 30.6105 135.461 31.2202 135.984 32.033C136.507 32.8459 136.821 33.8619 137.03 35.0812H131.068C129.603 34.37 128.244 33.7603 127.093 33.0491C125.733 32.3378 124.164 31.3218 122.281 30.0009Z" stroke="#979797" stroke-width="0.3"/>
<path id="Vector_4" d="M78.9774 30.0009C75.9439 28.68 73.7473 27.9688 72.2829 27.9688C70.8184 27.9688 69.0402 28.68 67.262 30.0009C66.3205 30.6105 65.7975 31.2202 65.2745 32.033C64.7515 32.8459 64.4377 33.8619 64.2285 35.0812H70.1908C71.6552 34.37 73.0151 33.7603 74.1657 33.0491C75.5255 32.3378 76.9899 31.3218 78.9774 30.0009Z" stroke="#979797" stroke-width="0.3"/>
<path id="Vector_5" d="M114.958 28.9809C110.355 30.0986 92.9913 29.997 87.029 28.9809C82.7403 28.2697 77.0918 25.0183 77.0918 22.9861C77.0918 21.6653 80.1252 20.6492 86.0876 19.9379C92.7821 19.2267 97.803 18.9219 101.046 18.9219C104.288 18.9219 108.995 19.2267 115.062 19.9379C121.025 20.6492 124.058 21.6653 124.058 22.9861C123.953 25.0183 119.56 27.8633 114.958 28.9809Z" stroke="#979797" stroke-width="0.3"/>
<g id="Group-5">
<path id="Path-27" d="M66.003 13.0274C65.2708 13.7387 64.957 14.7547 64.957 16.0756C64.957 17.3965 65.6892 18.4126 66.9445 19.1238C68.1997 19.8351 69.6641 19.8351 70.9193 19.1238C72.9068 18.1077 75.4172 17.4981 75.9402 16.0756C76.4632 14.6531 74.9988 13.2306 72.9068 13.0274C71.6515 12.8242 69.3503 12.8242 66.003 13.0274Z" stroke="#979797" stroke-width="0.3"/>
</g>
<g id="Group-5_1_">
<path id="Path-27_1_" d="M128.033 13.0274C125.941 13.2306 124.581 14.6531 124.999 16.0756C125.522 17.4981 128.033 18.1077 130.02 19.1238C131.276 19.8351 132.74 19.8351 133.995 19.1238C135.25 18.4126 135.983 17.3965 135.983 16.0756C135.983 14.7547 135.669 13.7387 134.937 13.0274C131.799 12.8242 129.497 12.8242 128.033 13.0274Z" stroke="#979797" stroke-width="0.3"/>
</g>
<path id="Vector_6" d="M67.9933 18.0018C69.1439 18.0018 69.9807 17.0873 69.9807 15.9696C69.9807 14.852 69.0393 13.9375 67.9933 13.9375C66.8427 13.9375 66.0059 14.852 66.0059 15.9696C66.0059 17.0873 66.9473 18.0018 67.9933 18.0018Z" stroke="#979797" stroke-width="0.3"/>
<path id="Vector_7" d="M133.056 18.0018C134.206 18.0018 135.043 17.0873 135.043 15.9696C135.043 14.852 134.102 13.9375 133.056 13.9375C131.905 13.9375 131.068 14.852 131.068 15.9696C131.068 17.0873 132.01 18.0018 133.056 18.0018Z" stroke="#979797" stroke-width="0.3"/>
<path id="Vector_8" d="M73.0143 107.926C83.8929 106.605 92.5749 105.894 98.9556 105.894C105.336 105.894 115.064 106.605 127.93 107.926L131.905 77.9519C130.964 73.1764 129.709 70.1281 127.93 68.9089C118.935 63.0157 106.905 62.9141 100.943 62.9141C95.2945 62.9141 80.8595 63.5237 71.9683 68.9089C69.8763 70.2298 68.8303 73.1764 68.9349 77.9519L73.0143 107.926Z" stroke="#979797" stroke-width="0.3"/>
<path id="Vector_9" d="M125.314 199.57C115.377 200.383 107.741 200.891 102.197 200.993C96.6532 201.094 87.2391 200.891 75.3145 200.282C75.4191 203.431 76.8835 205.667 78.1387 207.089C79.2893 208.512 81.5906 210.239 85.67 211.052C92.4692 211.56 97.6992 212.068 101.151 211.966C104.603 211.865 110.042 211.357 116.737 210.95C119.352 210.645 121.339 209.121 122.49 207.699C123.641 206.175 124.582 203.431 125.314 199.57Z" stroke="#979797" stroke-width="0.3"/>
<path id="Vector_10" d="M78.0351 211.97L75.0016 217.964C72.0728 218.472 70.0853 218.472 69.0393 217.964C67.9933 217.456 66.5289 216.135 65.0645 214.002V210.039L78.0351 211.97Z" stroke="#979797" stroke-width="0.3"/>
<path id="Vector_11" d="M135.984 209.945V213.908C134.52 216.143 133.055 217.363 132.009 217.871C130.859 218.379 128.871 218.379 126.047 217.871L123.014 211.876L135.984 209.945Z" stroke="#979797" stroke-width="0.3"/>
</g>
<g id="gauche">
<path id="Path-28" d="M43.9566 32.0326L42.9106 35.9952L40.9232 34.9792L41.9692 45.9527L36.0069 52.9636C33.8103 50.3218 31.8228 48.7977 30.0446 47.9848C28.2664 47.172 25.2329 46.8672 21.0488 46.9688V28.9844H35.0655C37.3667 29.2892 39.0403 29.6956 40.0864 30.0004C41.0278 30.3053 42.283 31.0165 43.9566 32.0326Z" stroke="#979797" stroke-width="0.3"/>
<path id="Path-29" d="M43.9591 32.0366C47.5155 42.6037 49.9214 50.6306 50.9674 56.0158C52.0134 61.4009 52.641 69.123 52.9548 78.9789C57.1389 85.4817 60.1724 90.4604 61.9506 94.0167C63.7288 97.4713 66.0301 102.856 68.9589 109.969L71.9924 108.953C73.9798 130.798 75.0258 146.751 75.0258 156.911C75.0258 167.072 73.9798 179.773 71.9924 194.912L54.9423 207.003V197.96C54.0009 198.164 53.4778 198.468 52.9548 198.976C52.4318 199.485 51.8042 200.501 50.9674 202.025L48.98 210.052L39.0428 214.014C38.729 216.046 37.9968 217.367 37.0554 217.977C35.5909 218.993 33.6035 219.806 31.0931 220.009C28.5826 220.212 27.955 219.603 26.0722 218.993C24.8169 218.587 23.0387 217.571 21.0513 215.945L20.0053 199.993C33.2897 197.249 39.6704 190.645 38.9382 179.976C38.206 169.307 30.9884 164.329 16.9718 164.938L15.9258 83.9576C29.9424 84.6689 36.9508 79.2837 36.9508 68.0054C36.9508 56.727 29.9424 50.3258 15.9258 49.0049L18.9592 30.0044L20.9467 28.9883C28.1642 28.7851 32.8713 28.7851 34.9633 28.9883C37.0554 29.1916 38.8336 29.598 39.9842 30.0044C41.9716 30.7157 43.3315 31.3253 43.9591 32.0366Z" stroke="#979797" stroke-width="0.3"/>
<path id="Oval" d="M21.0472 195.935C29.3107 195.935 36.0052 189.432 36.0052 181.405C36.0052 173.378 29.3107 166.875 21.0472 166.875C12.7836 166.875 6.0891 173.378 6.0891 181.405C5.9845 189.432 12.679 195.935 21.0472 195.935Z" stroke="#979797" stroke-width="0.3"/>
<path id="Oval_1_" d="M20.9461 191.97C27.013 191.97 31.9293 187.296 31.9293 181.505C31.9293 175.713 27.013 171.039 20.9461 171.039C14.8792 171.039 9.96289 175.713 9.96289 181.505C9.96289 187.296 14.8792 191.97 20.9461 191.97Z" stroke="#979797" stroke-width="0.3"/>
<path id="Oval_2_" d="M18.9581 82.0283C27.3262 82.0283 34.0207 75.5255 34.0207 67.4985C34.0207 59.4716 27.3262 52.9688 19.0627 52.9688C10.7991 52.9688 4 59.4716 4 67.4985C4 75.5255 10.6945 82.0283 18.9581 82.0283Z" stroke="#979797" stroke-width="0.3"/>
<path id="Oval_3_" d="M18.9578 77.9623C25.0247 77.9623 29.941 73.2883 29.941 67.4967C29.941 61.7052 25.0247 57.0312 18.9578 57.0312C12.8909 57.0312 7.97461 61.7052 7.97461 67.4967C7.97461 73.2883 12.8909 77.9623 18.9578 77.9623Z" stroke="#979797" stroke-width="0.3"/>
<path id="Path-30" d="M29.9419 39.9562C29.9419 41.9883 28.8959 43.0044 26.9085 43.0044C24.921 43.0044 23.875 42.2931 23.875 40.9723V33.9614C23.875 33.2501 24.6072 32.9453 25.8624 32.9453C27.1177 32.9453 27.8499 33.2501 27.8499 33.9614L29.9419 39.9562Z" stroke="#979797" stroke-width="0.3"/>
<path id="Oval_4_" d="M27.0109 41.994C28.1615 41.994 28.9983 41.0795 28.9983 39.9618C28.9983 38.8441 28.0569 37.9297 27.0109 37.9297C25.9649 37.9297 25.0234 38.8441 25.0234 39.9618C25.0234 41.0795 25.8603 41.994 27.0109 41.994Z" stroke="#979797" stroke-width="0.3"/>
<path id="Path-99" d="M41.0312 34.9766C42.1819 35.6878 43.2279 37.0087 44.0647 38.9392C45.3199 41.9874 45.8429 45.2388 46.0521 48.8967C46.1567 51.3353 45.8429 53.977 45.0061 56.9236C45.0061 56.9236 44.6923 56.2124 43.9601 54.8915C43.2279 53.5706 42.7049 50.624 41.9727 45.8485L41.0312 34.9766Z" stroke="#979797" stroke-width="0.3"/>
<path id="Path-32" d="M45.9441 49.0091C47.3039 52.0573 48.3499 56.02 48.9775 60.9987C49.6051 65.9775 50.0235 75.0205 50.0235 88.0261C46.4671 86.7053 42.806 85.994 39.0403 85.994C35.2747 85.994 29.2078 86.2988 21.0488 87.0101C32.3458 84.2667 38.7265 79.288 39.9818 71.9723C41.237 64.6566 39.9818 58.2554 36.0069 52.9718L41.9692 45.9609C42.1784 48.3995 42.5968 50.33 43.0152 51.9557C43.4336 53.5814 44.1658 55.2072 45.0027 56.9345C45.6303 54.4959 45.9441 52.8702 46.0487 51.9557C46.0487 51.1429 46.0487 50.1268 45.9441 49.0091Z" stroke="#979797" stroke-width="0.3"/>
<path id="Rectangle" d="M20.9465 84.0625H16.1348L17.1808 164.84H21.9925C21.4695 149.396 21.0511 136.796 20.9465 126.941C20.8418 117.085 20.8418 102.758 20.9465 84.0625Z" stroke="#979797" stroke-width="0.3"/>
<path id="Path-33" d="M21.9917 163.012C21.4686 152.445 21.0502 142.081 20.9456 132.022C20.841 121.963 20.841 106.925 20.9456 87.0104C29.2092 86.1976 35.4853 85.7911 39.8786 85.9944C44.2719 86.1976 47.6191 86.8072 49.8158 88.0265V81.0156C57.5563 89.957 62.7864 98.2888 65.8198 106.011C68.8533 113.733 70.5269 123.386 70.8407 134.969V166.975L52.8492 176.932H39.9832C39.251 173.681 37.6819 170.633 34.9623 167.889C32.2426 165.146 27.954 163.724 21.9917 163.012Z" stroke="#979797" stroke-width="0.3"/>
<path id="Path-34" d="M21.0488 132.018C30.986 131.713 38.3081 131.713 43.0152 132.018C47.7223 132.322 51.3834 133.034 53.9984 134.05L70.9439 135.066" stroke="#979797" stroke-width="0.3"/>
<path id="Path-35" d="M56.9282 175L53.8948 134.053L50.8613 86.0942L51.9073 85.0781" stroke="#979797" stroke-width="0.3"/>
<path id="Vector_14" d="M52.0137 84.9766L55.0471 131.919L70.0052 132.935C69.6914 124.502 68.4362 117.288 66.0303 110.988C63.5199 104.688 58.9174 95.9501 52.0137 84.9766Z" stroke="#979797" stroke-width="0.3"/>
<path id="Vector_15" d="M55.9883 139.031L57.9757 169.005L70.0049 164.027V139.031H55.9883Z" stroke="#979797" stroke-width="0.3"/>
<path id="Vector_16" d="M52.0137 94.0165V97.0647C52.8505 97.6743 53.3735 97.9791 54.0011 98.0807C54.6287 98.1823 55.5701 98.1823 57.0346 98.0807C57.1392 96.0486 57.1392 94.8293 57.0346 94.1181C56.93 93.4068 56.5116 92.6956 55.9885 92.0859H52.9551L52.0137 94.0165Z" stroke="#979797" stroke-width="0.3"/>
<path id="Path-38" d="M50.9666 89.9493C49.816 89.7461 49.1884 89.7461 48.9792 89.9493C48.77 90.1525 48.77 90.8637 48.9792 91.9814L52.0126 94.0136L53.0586 91.9814L50.9666 89.9493Z" stroke="#979797" stroke-width="0.3"/>
<path id="Vector_17" d="M45.002 124.502C45.002 127.042 45.002 128.973 45.525 128.973C46.048 128.973 46.048 126.941 46.048 124.502C46.048 122.063 46.048 120.031 45.525 120.031C45.002 120.031 45.002 121.962 45.002 124.502Z" stroke="#979797" stroke-width="0.3"/>
<path id="Vector_18" d="M47.9336 171.447C47.9336 173.987 47.9336 175.918 48.4566 175.918C48.9796 175.918 48.9796 173.886 48.9796 171.447C48.9796 168.907 48.9796 166.977 48.4566 166.977C47.9336 166.977 47.9336 169.009 47.9336 171.447Z" stroke="#979797" stroke-width="0.3"/>
<path id="Path-41" d="M38.9367 214.016L51.9073 209.037L71.8862 195.016L70.8402 202.026C68.7482 204.465 66.7608 206.396 64.8779 208.021C62.9951 209.647 59.5432 211.882 54.9407 215.032C52.9533 216.15 50.9659 216.861 48.9784 217.064C46.991 217.268 43.0161 217.674 36.9492 218.08C37.263 218.08 37.6814 217.776 37.9952 217.064C38.309 216.251 38.7275 215.235 38.9367 214.016Z" stroke="#979797" stroke-width="0.3"/>
<path id="Path-96" d="M47.9336 214.929C48.9796 215.437 49.921 215.844 50.967 215.945C52.0131 216.047 53.3729 215.742 54.9419 214.929V197.961C52.9545 198.672 51.5947 199.993 50.967 201.924C50.3394 203.854 49.2934 208.223 47.9336 214.929Z" stroke="#979797" stroke-width="0.3"/>
<path id="Path-95" d="M70.0038 202.945H66.9704L59.0206 208.94L57.9746 212.903C60.9035 211.074 63.2047 209.448 64.9829 207.924C66.7612 206.4 68.4348 204.774 70.0038 202.945Z" stroke="#979797" stroke-width="0.3"/>
<path id="Path-94" d="M52.9551 72.9844V78.9792C56.3023 83.8563 58.9174 88.2254 60.9048 91.9848C62.8923 95.7443 65.5073 101.739 68.8546 109.969L71.888 108.953C67.3901 99.1989 64.1475 92.1881 61.9508 87.9206C59.7542 83.7547 56.7207 78.776 52.9551 72.9844Z" stroke="#979797" stroke-width="0.3"/>
<path id="Path-44" d="M30.9894 220.015L29.9434 199.999C33.3952 198.272 36.0103 195.63 37.8931 191.972C39.7759 188.416 40.4035 183.335 39.8805 176.934H52.8512L56.826 174.902V181.913C57.9767 184.148 58.9181 185.672 59.8595 186.892C60.8009 188.111 62.4745 189.737 64.8804 191.87C65.8218 191.972 66.4494 191.972 66.8678 191.87C67.2862 191.769 67.6 191.362 67.9138 190.854L70.9473 166.875" stroke="#979797" stroke-width="0.3"/>
<path id="Vector_19" d="M58.9141 173.987V183.03C60.6923 185.469 62.0521 187.094 62.8889 188.009C63.4119 188.517 63.935 189.025 64.8764 190.041C65.6086 190.752 66.027 190.142 66.027 188.415L68.8512 167.992L58.9141 173.987Z" stroke="#979797" stroke-width="0.3"/>
</g>
<g id="droite">
<path id="Path-28_2_" d="M160.124 30.1879C161.17 29.8831 162.844 29.4767 165.145 29.1719H179.162V47.1563C174.978 47.0547 171.944 47.3595 170.166 48.1723C168.388 48.9852 166.4 50.6109 164.204 53.1511L158.241 46.1402L159.287 35.1667L157.3 36.1827L156.254 32.2201C157.823 31.204 159.078 30.4928 160.124 30.1879Z" stroke="#979797" stroke-width="0.3"/>
<path id="Path-29_2_" d="M160.124 30.1919C161.274 29.7855 163.053 29.3791 165.145 29.1758C167.237 28.9726 171.944 28.9726 179.161 29.1758L181.149 30.1919L184.182 49.1924C170.165 50.5133 163.157 56.9145 163.157 68.1929C163.157 79.4712 170.165 84.8564 184.182 84.1451L183.136 165.126C169.119 164.414 161.902 169.393 161.17 180.164C160.437 190.832 166.818 197.437 180.103 200.18L179.057 216.132C177.069 217.758 175.396 218.774 174.036 219.181C172.153 219.79 171.525 220.4 169.015 220.197C166.504 219.993 164.517 219.181 163.053 218.164C162.006 217.555 161.379 216.132 161.065 214.202L151.023 210.239L149.036 202.212C148.094 200.688 147.571 199.672 147.048 199.164C146.525 198.656 145.898 198.351 145.061 198.148V207.191L128.115 195.201C126.128 180.062 125.082 167.361 125.082 157.2C125.082 147.04 126.128 130.986 128.115 109.242L131.149 110.258C134.078 103.044 136.379 97.7604 138.157 94.3058C139.936 90.8512 142.969 85.7708 147.153 79.268C147.467 69.4121 148.199 61.69 149.14 56.3049C150.082 50.9197 152.488 42.8928 156.149 32.3257C156.776 31.5128 158.136 30.9032 160.124 30.1919Z" stroke="#979797" stroke-width="0.3"/>
<path id="Oval_14_" d="M179.058 196.122C187.321 196.122 194.016 189.619 194.016 181.592C194.016 173.565 187.321 167.062 179.058 167.062C170.794 167.062 164.1 173.565 164.1 181.592C164.1 189.619 170.794 196.122 179.058 196.122Z" stroke="#979797" stroke-width="0.3"/>
<path id="Oval_13_" d="M179.37 192.158C185.437 192.158 190.353 187.484 190.353 181.692C190.353 175.9 185.437 171.227 179.37 171.227C173.303 171.227 168.387 175.9 168.387 181.692C168.387 187.484 173.303 192.158 179.37 192.158Z" stroke="#979797" stroke-width="0.3"/>
<path id="Oval_12_" d="M181.042 82.2158C189.306 82.2158 196 75.713 196 67.686C196 59.6591 189.306 53.1562 181.042 53.1562C172.779 53.1562 166.084 59.6591 166.084 67.686C166.084 75.713 172.779 82.2158 181.042 82.2158Z" stroke="#979797" stroke-width="0.3"/>
<path id="Oval_11_" d="M181.059 78.1497C187.135 78.1497 192.059 73.4758 192.059 67.6843C192.059 61.8927 187.135 57.2188 181.059 57.2188C174.982 57.2188 170.059 61.8927 170.059 67.6843C170.059 73.4758 174.982 78.1497 181.059 78.1497Z" stroke="#979797" stroke-width="0.3"/>
<path id="Path-30_2_" d="M172.049 34.1489C172.049 33.4376 172.781 33.1328 174.036 33.1328C175.292 33.1328 176.024 33.4376 176.024 34.1489V41.1598C176.024 42.4806 174.978 43.1919 172.99 43.1919C171.003 43.1919 169.957 42.1758 169.957 40.1437L172.049 34.1489Z" stroke="#979797" stroke-width="0.3"/>
<path id="Oval_10_" d="M173.095 42.1815C174.245 42.1815 175.082 41.267 175.082 40.1493C175.082 39.0316 174.141 38.1172 173.095 38.1172C171.944 38.1172 171.107 39.0316 171.107 40.1493C171.107 41.267 171.944 42.1815 173.095 42.1815Z" stroke="#979797" stroke-width="0.3"/>
<path id="Path-98" d="M158.136 46.1454C157.404 50.8193 156.881 53.8675 156.149 55.1884C155.416 56.5093 155.103 57.2205 155.103 57.2205C154.266 54.2739 153.952 51.6321 154.057 49.1936C154.266 45.5357 154.789 42.1827 156.044 39.2361C156.881 37.204 157.822 35.9847 159.077 35.2734L158.136 46.1454Z" stroke="#979797" stroke-width="0.3"/>
<path id="Path-32_2_" d="M154.057 52.1432C154.162 53.0577 154.475 54.785 155.103 57.122C156.044 55.3947 156.672 53.7689 157.09 52.1432C157.509 50.5175 157.927 48.587 158.136 46.1484L164.099 53.1593C160.124 58.4429 158.764 64.8441 160.124 72.1598C161.379 79.4755 167.864 84.4542 179.057 87.1976C170.898 86.4863 164.831 86.1815 161.065 86.1815C157.3 86.1815 153.638 86.8928 150.082 88.2136C150.082 75.208 150.5 66.2666 151.128 61.1862C151.756 56.2075 152.697 52.1432 154.161 49.1966C153.952 50.3143 153.952 51.3304 154.057 52.1432Z" stroke="#979797" stroke-width="0.3"/>
<path id="Rectangle_2_" d="M179.161 127.128C179.057 136.984 178.638 149.583 178.115 165.027H182.927L183.973 84.25H179.161C179.266 102.946 179.266 117.272 179.161 127.128Z" stroke="#979797" stroke-width="0.3"/>
<path id="Path-33_2_" d="M165.04 168.178C162.32 170.922 160.751 173.868 160.019 177.222H147.048L129.057 167.264V135.258C129.37 123.675 131.044 113.92 134.078 106.3C137.111 98.5778 142.341 90.2461 150.082 81.3047V88.3156C152.383 87.0963 155.626 86.4866 160.019 86.2834C164.412 86.0802 170.688 86.4866 178.952 87.2995C179.056 107.214 179.056 122.151 178.952 132.311C178.847 142.37 178.429 152.734 177.906 163.301C172.048 163.809 167.759 165.435 165.04 168.178Z" stroke="#979797" stroke-width="0.3"/>
<path id="Path-34_2_" d="M129.162 135.152L146.108 134.136C148.723 133.12 152.384 132.408 157.091 132.104C161.798 131.799 169.12 131.799 179.057 132.104" stroke="#979797" stroke-width="0.3"/>
<path id="Path-35_2_" d="M148.093 85.1641L149.139 86.1801L146.106 134.139L143.072 175.086" stroke="#979797" stroke-width="0.3"/>
<path id="Vector_22" d="M134.078 111.175C131.673 117.475 130.417 124.791 130.104 133.122L145.062 132.106L148.095 85.1641C141.087 96.1376 136.484 104.876 134.078 111.175Z" stroke="#979797" stroke-width="0.3"/>
<path id="Vector_23" d="M130.104 139.117V164.112L142.133 169.091L144.12 139.117H130.104Z" stroke="#979797" stroke-width="0.3"/>
<path id="Vector_24" d="M147.049 92.1719H144.015C143.492 92.7815 143.074 93.4928 142.969 94.204C142.864 94.9153 142.864 96.2361 142.969 98.1667C144.329 98.2683 145.375 98.2683 146.003 98.1667C146.63 98.0651 147.153 97.7603 147.99 97.1506V94.1024L147.049 92.1719Z" stroke="#979797" stroke-width="0.3"/>
<path id="Path-38_2_" d="M147.047 92.1689L148.093 94.2011L151.126 92.1689C151.336 91.0512 151.336 90.34 151.126 90.1368C150.917 89.9336 150.185 89.9336 149.139 90.1368L147.047 92.1689Z" stroke="#979797" stroke-width="0.3"/>
<path id="Vector_25" d="M154.58 120.109C154.057 120.109 154.057 122.142 154.057 124.58C154.057 127.019 154.057 129.051 154.58 129.051C155.103 129.051 155.103 127.019 155.103 124.58C155.103 122.142 155.103 120.109 154.58 120.109Z" stroke="#979797" stroke-width="0.3"/>
<path id="Vector_26" d="M151.548 167.164C151.025 167.164 151.025 169.196 151.025 171.635C151.025 174.175 151.025 176.105 151.548 176.105C152.071 176.105 152.071 174.073 152.071 171.635C152.071 169.196 152.071 167.164 151.548 167.164Z" stroke="#979797" stroke-width="0.3"/>
<path id="Path-41_2_" d="M162.111 217.142C162.425 217.854 162.843 218.158 163.157 218.158C157.195 217.752 153.115 217.346 151.128 217.142C149.14 216.939 147.153 216.228 145.165 215.11C140.458 212.062 137.111 209.725 135.124 208.099C133.241 206.474 131.253 204.543 129.161 202.105L128.115 195.094L148.094 209.115L161.065 214.094C161.379 215.415 161.797 216.431 162.111 217.142Z" stroke="#979797" stroke-width="0.3"/>
<path id="Path-97" d="M149.139 202.111C148.407 200.079 147.151 198.86 145.164 198.148V215.117C146.733 215.93 148.198 216.234 149.139 216.133C150.185 216.031 151.126 215.625 152.172 215.117C150.813 208.411 149.767 204.143 149.139 202.111Z" stroke="#979797" stroke-width="0.3"/>
<path id="Path-93" d="M135.124 208.112C136.903 209.636 139.204 211.261 142.133 213.09L141.087 209.128L133.137 203.133H130.104C131.568 204.962 133.346 206.689 135.124 208.112Z" stroke="#979797" stroke-width="0.3"/>
<path id="Path-92" d="M138.157 88.2096C135.96 92.3755 132.613 99.3864 128.115 109.242L131.149 110.258C134.496 102.028 137.111 96.0334 139.098 92.2739C141.086 88.5145 143.701 84.1454 147.048 79.2682V73.2734C143.283 78.9634 140.354 83.9421 138.157 88.2096Z" stroke="#979797" stroke-width="0.3"/>
<path id="Path-44_2_" d="M129.162 167.164L132.196 191.143C132.509 191.651 132.823 192.058 133.242 192.159C133.66 192.261 134.392 192.261 135.229 192.159C137.635 189.924 139.308 188.4 140.25 187.181C141.191 185.961 142.133 184.336 143.283 182.202V175.191L147.258 177.223H160.229C159.706 183.624 160.333 188.603 162.216 192.261C164.099 195.817 166.714 198.561 170.166 200.288L169.12 220.304" stroke="#979797" stroke-width="0.3"/>
<path id="Vector_27" d="M131.15 168.18L133.975 188.603C134.079 190.33 134.498 190.94 135.125 190.228C136.171 189.212 136.59 188.704 137.113 188.196C138.054 187.282 139.309 185.554 141.088 183.217V174.174L131.15 168.18Z" stroke="#979797" stroke-width="0.3"/>
</g>
</g>
</g>
</g>
</g>
<g id="Group_9">
<path id="CLR" d="M103.983 20.2315V19.7005H103.43H101.107V17.3642V16.8332H100.554H99.6695H99.1165V17.3642V19.7005H96.794H96.241V20.2315V21.1872V21.7182H96.794H99.1165V24.0545V24.5855H99.6695H100.554H101.107V24.0545V21.7182H103.43H103.983V21.1872V20.2315ZM95.7986 24.904C93.476 22.5678 93.476 18.7447 95.7986 16.4085C98.1212 14.0722 101.992 14.0722 104.315 16.4085C106.637 18.7447 106.637 22.5678 104.315 24.904C101.992 27.2403 98.2318 27.2403 95.7986 24.904Z" fill="black" stroke="black"/>
</g>
<g id="Group_29">
<path id="CPT" d="M103.983 48.5752V48.0443H103.43H101.107V45.708V45.177H100.554H99.6695H99.1165V45.708V48.0443H96.794H96.241V48.5752V49.531V50.0619H96.794H99.1165V52.3982V52.9292H99.6695H100.554H101.107V52.3982V50.0619H103.43H103.983V49.531V48.5752ZM95.7986 53.2478C93.476 50.9115 93.476 47.0885 95.7986 44.7522C98.1212 42.4159 101.992 42.4159 104.315 44.7522C106.637 47.0885 106.637 50.9115 104.315 53.2478C101.992 55.5841 98.2318 55.5841 95.7986 53.2478Z" fill="black" stroke="black"/>
</g>
<g id="Group_47">
<path id="AILAVD" d="M164.458 75.4847V74.9537H163.905H161.582V72.6174V72.0864H161.029H160.144H159.591V72.6174V74.9537H157.269H156.716V75.4847V76.4404V76.9714H157.269H159.591V79.3077V79.8386H160.144H161.029H161.582V79.3077V76.9714H163.905H164.458V76.4404V75.4847ZM156.273 80.2634C153.951 77.9271 153.951 74.1041 156.273 71.7678C158.596 69.4316 162.467 69.4316 164.789 71.7678C167.112 74.1041 167.112 77.9271 164.789 80.2634C162.467 82.5997 158.596 82.5997 156.273 80.2634Z" fill="black" stroke="black"/>
</g>
<g id="Group_19">
<path id="PRCAVD" d="M174.157 38.6612V38.1302H173.604H171.281V35.7939V35.2629H170.728H169.843H169.29V35.7939V38.1302H166.968H166.415V38.6612V39.6169V40.1479H166.968H169.29V42.4842V43.0151H169.843H170.728H171.281V42.4842V40.1479H173.604H174.157V39.6169V38.6612ZM165.972 43.3337C163.65 40.9974 163.65 37.1744 165.972 34.8381C168.295 32.5019 172.166 32.5019 174.489 34.8381C176.811 37.1744 176.811 40.9974 174.489 43.3337C172.166 45.67 168.295 45.67 165.972 43.3337Z" fill="black" stroke="black"/>
</g>
<g id="Group_16">
<path id="ABRAVD" d="M136.816 14.5752V14.0442H136.263H133.94V11.708V11.177H133.387H132.502H131.949V11.708V14.0442H129.627H129.074V14.5752V15.531V16.0619H129.627H131.949V18.3982V18.9292H132.502H133.387H133.94V18.3982V16.0619H136.263H136.816V15.531V14.5752ZM128.742 19.2478C126.419 16.9115 126.419 13.0885 128.742 10.7522C131.065 8.41593 134.935 8.41593 137.258 10.7522C139.581 13.0885 139.581 16.9115 137.258 19.2478C134.825 21.5841 131.065 21.5841 128.742 19.2478Z" fill="black" stroke="black"/>
</g>
<g id="Group_18">
<path id="PRCAV" d="M118.043 11.544V11.013H117.49H115.168V8.67672V8.14574H114.615H113.73H113.177V8.67672V11.013H110.855H110.302V11.544V12.4997V13.0307H110.855H113.177V15.2608V15.7918H113.73H114.615H115.168V15.2608V12.9245H117.49H118.043V12.3935V11.544V11.544ZM109.859 16.2165C107.537 13.8803 107.537 10.0572 109.859 7.72096C112.182 5.38468 116.053 5.38468 118.375 7.72096C120.698 10.0572 120.698 13.8803 118.375 16.2165C116.053 18.5528 112.182 18.5528 109.859 16.2165Z" fill="black" stroke="black"/>
</g>
<g id="Group_17">
<path id="ABRAVG" d="M71.9263 14.5752V14.0442H71.3733H69.0507V11.708V11.177H68.4977H67.6129H67.0599V11.708V14.0442H64.7373H64.1843V14.5752V15.531V16.0619H64.7373H67.0599V18.3982V18.9292H67.6129H68.4977H69.0507V18.3982V16.0619H71.3733H71.9263V15.531V14.5752ZM63.7419 19.2478C61.4194 16.9115 61.4194 13.0885 63.7419 10.7522C66.0645 8.41593 69.9355 8.41593 72.2581 10.7522C74.5806 13.0885 74.5806 16.9115 72.2581 19.2478C69.9355 21.5841 66.0645 21.5841 63.7419 19.2478Z" fill="black" stroke="black"/>
</g>
<g id="Group_20">
<path id="PRCAVG" d="M35.9954 36.43V35.899H35.4424H33.1198V33.5627V33.0317H32.5668H31.682H31.129V33.5627V35.899H28.8064H28.2534V36.43V37.3857V37.9167H28.8064H31.129V40.253V40.7839H31.682H32.5668H33.1198V40.253V37.9167H35.4424H35.9954V37.3857V36.43ZM27.9216 41.2087C25.599 38.8724 25.599 35.0494 27.9216 32.7131C30.2442 30.3769 34.1152 30.3769 36.4378 32.7131C38.7603 35.0494 38.7603 38.8724 36.4378 41.2087C34.1152 43.545 30.2442 43.545 27.9216 41.2087Z" fill="black" stroke="black"/>
</g>
<g id="Group_22">
<path id="BDCG" d="M20.8157 131.575V131.044H20.2627H17.9401V128.708V128.177H17.3871H16.5023H15.9493V128.708V131.044H13.6267H13.0737V131.575V132.531V133.062H13.6267H15.9493V135.398V135.929H16.5023H17.3871H17.9401V135.398V133.062H20.2627H20.8157V132.531V131.575ZM12.7419 136.248C10.4194 133.912 10.4194 130.088 12.7419 127.752C15.0645 125.416 18.9355 125.416 21.2581 127.752C23.5806 130.088 23.5806 133.912 21.2581 136.248C18.9355 138.584 15.0645 138.584 12.7419 136.248Z" fill="black" stroke="black"/>
</g>
<g id="Group_23">
<path id="BDCD" d="M187.926 131.575V131.044H187.373H185.051V128.708V128.177H184.498H183.613H183.06V128.708V131.044H180.737H180.184V131.575V132.531V133.062H180.737H183.06V135.398V135.929H183.613H184.498H185.051V135.398V133.062H187.373H187.926V132.531V131.575ZM179.742 136.248C177.419 133.912 177.419 130.088 179.742 127.752C182.065 125.416 185.935 125.416 188.258 127.752C190.581 130.088 190.581 133.912 188.258 136.248C185.935 138.584 182.175 138.584 179.742 136.248Z" fill="black" stroke="black"/>
</g>
<g id="Group_48">
<path id="PRTARD" d="M171.977 156.88V156.349H171.424H169.101V154.013V153.482H168.548H167.664H167.111V154.013V156.349H164.788H164.235V156.88V157.836V158.367H164.788H167.111V160.703V161.234H167.664H168.548H169.101V160.703V158.367H171.424H171.977V157.836V156.88ZM163.793 161.552C161.47 159.216 161.47 155.393 163.793 153.057C166.115 150.721 169.986 150.721 172.309 153.057C174.631 155.393 174.631 159.216 172.309 161.552C169.986 163.889 166.226 163.889 163.793 161.552Z" fill="black" stroke="black"/>
</g>
<g id="Group_49">
<path id="PRTAVD" d="M171.977 109.146V108.615H171.424H169.101V106.278V105.747H168.548H167.664H167.111V106.278V108.615H164.788H164.235V109.146V110.101V110.632H164.788H167.111V112.969V113.5H167.664H168.548H169.101V112.969V110.632H171.424H171.977V110.101V109.146ZM163.793 113.818C161.47 111.482 161.47 107.659 163.793 105.323C166.115 102.986 169.986 102.986 172.309 105.323C174.631 107.659 174.631 111.482 172.309 113.818C169.986 116.154 166.226 116.154 163.793 113.818Z" fill="black" stroke="black"/>
</g>
<g id="Group_50">
<path id="PGNAVD" d="M163.372 122.146V121.615H162.819H160.496V119.278V118.747H159.943H159.058H158.505V119.278V121.615H156.183H155.63V122.146V123.101V123.632H156.183H158.505V125.969V126.5H159.058H159.943H160.496V125.969V123.632H162.819H163.372V123.101V122.146ZM155.187 126.818C152.865 124.482 152.865 120.659 155.187 118.323C157.51 115.986 161.381 115.986 163.703 118.323C166.026 120.659 166.026 124.482 163.703 126.818C161.381 129.154 157.51 129.154 155.187 126.818Z" fill="black" stroke="black"/>
</g>
<g id="Group_51">
<path id="PGNARD" d="M156.926 170.575V170.044H156.373H154.051V167.708V167.177H153.498H152.613H152.06V167.708V170.044H149.737H149.184V170.575V171.531V172.062H149.737H152.06V174.398V174.929H152.613H153.498H154.051V174.398V172.062H156.373H156.926V171.425V170.575ZM148.742 175.248C146.419 172.912 146.419 169.088 148.742 166.752C151.065 164.416 154.935 164.416 157.258 166.752C159.581 169.088 159.581 172.912 157.258 175.248C154.935 177.584 151.065 177.584 148.742 175.248Z" fill="black" stroke="black"/>
</g>
<g id="Group_21">
<path id="AILAVG" d="M43.5129 67.9815V67.4505H42.9599H40.6374V65.1142V64.5832H40.0844H39.1996H38.6466V65.1142V67.4505H36.324H35.771V67.9815V68.9372V69.4682H36.324H38.6466V71.8045V72.3355H39.1996H40.0844H40.6374V71.8045V69.4682H42.9599H43.5129V68.9372V67.9815ZM35.4392 72.654C33.1166 70.3178 33.1166 66.4947 35.4392 64.1585C37.7618 61.8222 41.6328 61.8222 43.9553 64.1585C46.2779 66.4947 46.2779 70.3178 43.9553 72.654C41.5222 74.9903 37.7618 74.9903 35.4392 72.654Z" fill="black" stroke="black"/>
</g>
<g id="Group_36">
<path id="PRCARG" d="M22.9263 210.575V210.044H22.3733H20.0507V207.708V207.177H19.4977H18.6129H18.0599V207.708V210.044H15.7373H15.1843V210.575V211.531V212.062H15.7373H18.0599V214.398V214.929H18.6129H19.4977H20.0507V214.398V212.062H22.3733H22.9263V211.531V210.575ZM14.7419 215.248C12.4194 212.912 12.4194 209.088 14.7419 206.752C17.0645 204.416 20.9355 204.416 23.2581 206.752C25.5806 209.088 25.5806 212.912 23.2581 215.248C20.9355 217.584 17.1751 217.584 14.7419 215.248Z" fill="black" stroke="black"/>
</g>
<g id="Group_10">
<path id="TOI" d="M103.659 156.981V156.45H103.106H100.784V154.114V153.583H100.231H99.3461H98.7931V154.114V156.45H96.4705H95.9175V156.981V157.937V158.468H96.4705H98.7931V160.804V161.335H99.3461H100.231H100.784V160.804V158.468H103.106H103.659V157.937V156.981ZM95.5857 161.654C93.2631 159.318 93.2631 155.495 95.5857 153.158C97.9083 150.822 101.779 150.822 104.102 153.158C106.424 155.495 106.424 159.318 104.102 161.654C101.669 163.99 97.9083 163.99 95.5857 161.654Z" fill="black" stroke="black"/>
</g>
<g id="Group_27">
<path id="PRBAV" d="M103.983 85.3252V84.7942H103.43H101.107V82.458V81.927H100.554H99.6695H99.1165V82.458V84.7942H96.794H96.241V85.3252V86.281V86.8119H96.794H99.1165V89.1482V89.6792H99.6695H100.554H101.107V89.1482V86.8119H103.43H103.983V86.1748V85.3252ZM95.7986 89.9978C93.476 87.6615 93.476 83.8385 95.7986 81.5022C98.1212 79.1659 101.992 79.1659 104.315 81.5022C106.637 83.8385 106.637 87.6615 104.315 89.9978C101.992 92.3341 98.2318 92.3341 95.7986 89.9978Z" fill="black" stroke="black"/>
</g>
<g id="Group_11">
<path id="PRBAR" d="M103.983 205.575V205.044H103.43H101.107V202.708V202.177H100.554H99.6695H99.1165V202.708V205.044H96.794H96.241V205.575V206.531V207.062H96.794H99.1165V209.398V209.929H99.6695H100.554H101.107V209.398V207.062H103.43H103.983V206.531V205.575ZM95.7986 210.248C93.476 207.912 93.476 204.088 95.7986 201.752C98.1212 199.416 101.992 199.416 104.315 201.752C106.637 204.088 106.637 207.912 104.315 210.248C101.992 212.584 98.2318 212.584 95.7986 210.248Z" fill="black" stroke="black"/>
</g>
<g id="Group_30">
<path id="CFR" d="M103.983 221.575V221.044H103.43H101.107V218.708V218.177H100.554H99.6695H99.1165V218.708V221.044H96.794H96.241V221.575V222.531V223.062H96.794H99.1165V225.398V225.929H99.6695H100.554H101.107V225.398V223.062H103.43H103.983V222.531V221.575ZM95.7986 226.248C93.476 223.912 93.476 220.088 95.7986 217.752C98.1212 215.416 101.992 215.416 104.315 217.752C106.637 220.088 106.637 223.912 104.315 226.248C101.992 228.584 98.2318 228.584 95.7986 226.248Z" fill="black" stroke="black"/>
</g>
<g id="Group_24">
<path id="PHRARG" d="M73.8157 215.575V215.044H73.2627H70.9401V212.708V212.177H70.3871H69.5023H68.9493V212.708V215.044H66.6267H66.0737V215.575V216.531V217.062H66.6267H68.9493V219.398V219.929H69.5023H70.3871H70.9401V219.398V217.062H73.2627H73.8157V216.531V215.575ZM65.7419 220.248C63.4194 217.912 63.4194 214.088 65.7419 211.752C68.0645 209.416 71.9355 209.416 74.2581 211.752C76.5806 214.088 76.5806 217.912 74.2581 220.248C71.8249 222.584 68.0645 222.584 65.7419 220.248Z" fill="black" stroke="black"/>
</g>
<g id="Group_25">
<path id="PHRARD" d="M133.816 215.575V215.044H133.263H130.94V212.708V212.177H130.387H129.502H128.949V212.708V215.044H126.627H126.074V215.575V216.531V217.062H126.627H128.949V219.398V219.929H129.502H130.387H130.94V219.398V217.062H133.263H133.816V216.531V215.575ZM125.742 220.248C123.419 217.912 123.419 214.088 125.742 211.752C128.065 209.416 131.935 209.416 134.258 211.752C136.581 214.088 136.581 217.912 134.258 220.248C131.935 222.584 128.065 222.584 125.742 220.248Z" fill="black" stroke="black"/>
</g>
<g id="Group_30_x5F_2">
<path id="PRCAR" d="M103.926 237.575V237.044H103.373H101.051V234.708V234.177H100.498H99.6129H99.0599V234.708V237.044H96.7373H96.1843V237.575V238.531V239.062H96.7373H99.0599V241.398V241.929H99.6129H100.498H101.051V241.398V239.062H103.373H103.926V238.531V237.575ZM95.7419 242.248C93.4194 239.912 93.4194 236.088 95.7419 233.752C98.0645 231.416 101.935 231.416 104.258 233.752C106.581 236.088 106.581 239.912 104.258 242.248C101.935 244.584 98.1751 244.584 95.7419 242.248Z" fill="black" stroke="black"/>
</g>
<g id="Group_37">
<path id="ABRARD" d="M137.831 237.575V237.044H137.278H134.955V234.708V234.177H134.402H133.517H132.964V234.708V237.044H130.642H130.089V237.575V238.531V239.062H130.642H132.964V241.398V241.929H133.517H134.402H134.955V241.398V239.062H137.278H137.831V238.531V237.575ZM129.646 242.248C127.324 239.912 127.324 236.088 129.646 233.752C131.969 231.416 135.84 231.416 138.162 233.752C140.485 236.088 140.485 239.912 138.162 242.248C135.84 244.584 132.079 244.584 129.646 242.248Z" fill="black" stroke="black"/>
</g>
<g id="Group_38">
<path id="ABRARG" d="M70.9263 237.575V237.044H70.3733H68.0507V234.708V234.177H67.4977H66.6129H66.0599V234.708V237.044H63.7373H63.1843V237.575V238.531V239.062H63.7373H66.0599V241.398V241.929H66.6129H67.4977H68.0507V241.398V239.062H70.3733H70.9263V238.531V237.575V237.575ZM62.7419 242.248C60.4194 239.912 60.4194 236.088 62.7419 233.752C65.0645 231.416 68.9355 231.416 71.2581 233.752C73.5806 236.088 73.5806 239.912 71.2581 242.248C68.9355 244.584 65.0645 244.584 62.7419 242.248Z" fill="black" stroke="black"/>
</g>
<g id="Group_26_x5F_2">
<path id="PRCARD" d="M184.842 210.575V210.044H184.289H181.967V207.708V207.177H181.414H180.529H179.976V207.708V210.044H177.653H177.1V210.575V211.531V212.062H177.653H179.976V214.398V214.929H180.529H181.414H181.967V214.398V212.062H184.289H184.842V211.531V210.575ZM176.658 215.248C174.335 212.912 174.335 209.088 176.658 206.752C178.981 204.416 182.851 204.416 185.174 206.752C187.497 209.088 187.497 212.912 185.174 215.248C182.851 217.584 179.091 217.584 176.658 215.248Z" fill="black" stroke="black"/>
</g>
<g id="Group_27_x5F_2">
<path id="AILARD" d="M160.1 199.216V198.685H159.547H157.225V196.349V195.818H156.672H155.787H155.234V196.349V198.685H152.911H152.358V199.216V200.172V200.703H152.911H155.234V203.039V203.57H155.787H156.672H157.225V203.039V200.703H159.547H160.1V200.172V199.216ZM151.916 203.888C149.593 201.552 149.593 197.729 151.916 195.393C154.238 193.057 158.109 193.057 160.432 195.393C162.754 197.729 162.754 201.552 160.432 203.888C158.109 206.225 154.349 206.225 151.916 203.888Z" fill="black" stroke="black"/>
</g>
<g id="Group_39">
<path id="CSTARD" d="M139.816 179.469V178.938H139.263H136.94V176.602V176.071H136.387H135.502H134.949V176.602V178.938H132.627H132.074V179.469V180.425V180.956H132.627H134.949V183.292V183.823H135.502H136.387H136.94V183.292V180.956H139.263H139.816V180.425V179.469ZM131.742 184.248C129.419 181.912 129.419 178.088 131.742 175.752C134.065 173.416 137.935 173.416 140.258 175.752C142.581 178.088 142.581 181.912 140.258 184.248C137.935 186.584 134.065 186.584 131.742 184.248Z" fill="black" stroke="black"/>
</g>
<g id="Group_41">
<path id="VTRARD" d="M139.816 150.575V150.044H139.263H136.94V147.708V147.177H136.387H135.502H134.949V147.708V150.044H132.627H132.074V150.575V151.531V152.062H132.627H134.949V154.398V154.929H135.502H136.387H136.94V154.398V152.062H139.263H139.816V151.531V150.575ZM131.742 155.248C129.419 152.912 129.419 149.088 131.742 146.752C134.065 144.416 137.935 144.416 140.258 146.752C142.581 149.088 142.581 152.912 140.258 155.248C137.935 157.584 134.065 157.584 131.742 155.248Z" fill="black" stroke="black"/>
</g>
<g id="Group_42">
<path id="VTRAVD" d="M142.816 118.575V118.044H142.263H139.94V115.708V115.177H139.387H138.502H137.949V115.708V118.044H135.627H135.074V118.575V119.531V120.062H135.627H137.949V122.398V122.929H138.502H139.387H139.94V122.398V120.062H142.263H142.816V119.531V118.575ZM134.742 123.248C132.419 120.912 132.419 117.088 134.742 114.752C137.065 112.416 140.935 112.416 143.258 114.752C145.581 117.088 145.581 120.912 143.258 123.248C140.825 125.584 137.065 125.584 134.742 123.248Z" fill="black" stroke="black"/>
</g>
<g id="Group_43">
<path id="RTRD" d="M149.926 95.5752V95.0442H149.373H147.051V92.708V92.177H146.498H145.613H145.06V92.708V95.0442H142.737H142.184V95.5752V96.531V97.0619H142.737H145.06V99.3982V99.9292H145.613H146.498H147.051V99.3982V97.0619H149.373H149.926V96.531V95.5752ZM141.742 100.248C139.419 97.9115 139.419 94.0885 141.742 91.7522C144.065 89.4159 147.935 89.4159 150.258 91.7522C152.581 94.0885 152.581 97.9115 150.258 100.248C147.935 102.584 144.175 102.584 141.742 100.248Z" fill="black" stroke="black"/>
</g>
<g id="Group_44">
<path id="RTRG" d="M57.8157 95.5752V95.0442H57.2627H54.9401V92.708V92.177H54.3871H53.5023H52.9493V92.708V95.0442H50.6267H50.0737V95.5752V96.531V97.0619H50.6267H52.9493V99.3982V99.9292H53.5023H54.3871H54.9401V99.3982V97.0619H57.2627H57.8157V96.531V95.5752ZM49.7419 100.248C47.4194 97.9115 47.4194 94.0885 49.7419 91.7522C52.0645 89.4159 55.9355 89.4159 58.2581 91.7522C60.5806 94.0885 60.5806 97.9115 58.2581 100.248C55.8249 102.584 52.0645 102.584 49.7419 100.248Z" fill="black" stroke="black"/>
</g>
<g id="Group_46">
<path id="VTRARG" d="M67.8157 150.575V150.044H67.2627H64.9401V147.708V147.177H64.3871H63.5023H62.9493V147.708V150.044H60.6267H60.0737V150.575V151.531V152.062H60.6267H62.9493V154.398V154.929H63.5023H64.3871H64.9401V154.398V152.062H67.2627H67.8157V151.531V150.575V150.575ZM59.7419 155.248C57.4194 152.912 57.4194 149.088 59.7419 146.752C62.0645 144.416 65.9355 144.416 68.2581 146.752C70.5806 149.088 70.5806 152.912 68.2581 155.248C65.9355 157.584 62.0645 157.584 59.7419 155.248Z" fill="black" stroke="black"/>
</g>
<g id="Group_40">
<path id="CSTARG" d="M67.8157 179.469V178.938H67.2627H64.9401V176.602V176.071H64.3871H63.5023H62.9493V176.602V178.938H60.6267H60.0737V179.469V180.425V180.956H60.6267H62.9493V183.292V183.823H63.5023H64.3871H64.9401V183.292V180.956H67.2627H67.8157V180.425V179.469V179.469ZM59.7419 184.248C57.4194 181.912 57.4194 178.088 59.7419 175.752C62.0645 173.416 65.9355 173.416 68.2581 175.752C70.5806 178.088 70.5806 181.912 68.2581 184.248C65.9355 186.584 62.0645 186.584 59.7419 184.248Z" fill="black" stroke="black"/>
</g>
<g id="Group_31">
<path id="AILARG" d="M50.5962 191.372V190.841H50.0432H47.7206V188.505V187.974H47.1676H46.2828H45.7298V188.505V190.841H43.4072H42.8543V191.372V192.328V192.859H43.4072H45.7298V195.195V195.726H46.2828H47.1676H47.7206V195.195V192.859H50.0432H50.5962V192.328V191.372ZM42.4119 196.045C40.0893 193.708 40.0893 189.885 42.4119 187.549C44.7344 185.213 48.6054 185.213 50.928 187.549C53.2506 189.885 53.2506 193.708 50.928 196.045C48.6054 198.381 44.845 198.381 42.4119 196.045Z" fill="black" stroke="black"/>
</g>
<g id="Group_52">
<path id="TRP" d="M42.3149 206.93V206.399H41.7619H39.4394V204.063V203.532H38.8864H38.0016H37.4486V204.063V206.399H35.126H34.573V206.93V207.886V208.417H35.126H37.4486V210.753V211.284H38.0016H38.8864H39.4394V210.753V208.417H41.7619H42.3149V207.886V206.93ZM34.1306 211.709C31.808 209.372 31.808 205.549 34.1306 203.213C36.4532 200.877 40.3242 200.877 42.6467 203.213C44.9693 205.549 44.9693 209.372 42.6467 211.709C40.3242 214.045 36.4532 214.045 34.1306 211.709Z" fill="black" stroke="black"/>
</g>
<g id="Group_32">
<path id="PRTARG" d="M38.1763 159.099V158.568H37.6233H35.3007V156.231V155.7H34.7477H33.8629H33.3099V156.231V158.568H30.9873H30.4343V159.099V160.054V160.585H30.9873H33.3099V162.922V163.453H33.8629H34.7477H35.3007V162.922V160.585H37.6233H38.1763V160.054V159.099ZM29.9919 163.771C27.6694 161.435 27.6694 157.612 29.9919 155.276C32.3145 152.939 36.1855 152.939 38.5081 155.276C40.8306 157.612 40.8306 161.435 38.5081 163.771C36.1855 166.108 32.3145 166.108 29.9919 163.771Z" fill="black" stroke="black"/>
</g>
<g id="Group_33">
<path id="PGNAVG" d="M47.9263 124.575V124.044H47.3733H45.0507V121.708V121.177H44.4977H43.6129H43.0599V121.708V124.044H40.7373H40.1843V124.575V125.531V126.062H40.7373H43.0599V128.398V128.929H43.6129H44.4977H45.0507V128.398V126.062H47.3733H47.9263V125.531V124.575ZM39.7419 129.248C37.4194 126.912 37.4194 123.088 39.7419 120.752C42.0645 118.416 45.9355 118.416 48.2581 120.752C50.5806 123.088 50.5806 126.912 48.2581 129.248C45.9355 131.584 42.1751 131.584 39.7419 129.248Z" fill="black" stroke="black"/>
</g>
<g id="Group_35">
<path id="PGNARG" d="M51.9263 170.575V170.044H51.3733H49.0507V167.708V167.177H48.4977H47.6129H47.0599V167.708V170.044H44.7373H44.1843V170.575V171.531V172.062H44.7373H47.0599V174.398V174.929H47.6129H48.4977H49.0507V174.398V172.062H51.3733H51.9263V171.425V170.575ZM43.7419 175.248C41.4194 172.912 41.4194 169.088 43.7419 166.752C46.0645 164.416 49.9355 164.416 52.2581 166.752C54.5806 169.088 54.5806 172.912 52.2581 175.248C49.9355 177.584 46.1751 177.584 43.7419 175.248Z" fill="black" stroke="black"/>
</g>
<g id="Group_34">
<path id="PRTAVG" d="M34.9048 109.146V108.615H34.3518H32.0292V106.278V105.747H31.4762H30.5914H30.0384V106.278V108.615H27.7158H27.1628V109.146V110.101V110.632H27.7158H30.0384V112.969V113.5H30.5914H31.4762H32.0292V112.969V110.632H34.3518H34.9048V110.101V109.146ZM26.7205 113.818C24.3979 111.482 24.3979 107.659 26.7205 105.323C29.043 102.986 32.914 102.986 35.2366 105.323C37.5592 107.659 37.5592 111.482 35.2366 113.818C32.914 116.154 29.1536 116.154 26.7205 113.818Z" fill="black" stroke="black"/>
</g>
<g id="Group_28">
<path id="ROUAVG" d="M22.8157 66.5752V66.0442H22.2627H19.9401V63.708V63.177H19.3871H18.5023H17.9493V63.708V66.0442H15.6267H15.0737V66.5752V67.531V68.0619H15.6267H17.9493V70.3982V70.9292H18.5023H19.3871H19.9401V70.3982V68.0619H22.2627H22.8157V67.531V66.5752ZM14.7419 71.2478C12.4194 68.9115 12.4194 65.0885 14.7419 62.7522C17.0645 60.4159 20.9355 60.4159 23.2581 62.7522C25.5806 65.0885 25.5806 68.9115 23.2581 71.2478C20.9355 73.5841 17.0645 73.5841 14.7419 71.2478Z" fill="black" stroke="black"/>
</g>
<g id="Group_14">
<path id="ROUAVD" d="M184.816 67.5752V67.0442H184.263H181.94V64.708V64.177H181.387H180.502H179.949V64.708V67.0442H177.627H177.074V67.5752V68.531V69.0619H177.627H179.949V71.3982V71.9292H180.502H181.387H181.94V71.3982V69.0619H184.263H184.816V68.531V67.5752ZM176.742 72.2478C174.419 69.9115 174.419 66.0885 176.742 63.7522C179.065 61.4159 182.935 61.4159 185.258 63.7522C187.581 66.0885 187.581 69.9115 185.258 72.2478C182.935 74.5841 179.065 74.5841 176.742 72.2478Z" fill="black" stroke="black"/>
</g>
<path id="ROUARD" d="M182.816 181.469V180.938H182.263H179.94V178.602V178.071H179.387H178.502H177.949V178.602V180.938H175.627H175.074V181.469V182.425V182.956H175.627H177.949V185.292V185.823H178.502H179.387H179.94V185.292V182.956H182.263H182.816V182.425V181.469ZM174.742 186.248C172.419 183.912 172.419 180.088 174.742 177.752C177.065 175.416 180.935 175.416 183.258 177.752C185.581 180.088 185.581 183.912 183.258 186.248C180.935 188.584 177.065 188.584 174.742 186.248Z" fill="black" stroke="black"/>
<g id="Group_26">
<path id="ROUARG" d="M24.8157 181.469V180.938H24.2627H21.9401V178.602V178.071H21.3871H20.5023H19.9493V178.602V180.938H17.6267H17.0737V181.469V182.425V182.956H17.6267H19.9493V185.292V185.823H20.5023H21.3871H21.9401V185.292V182.956H24.2627H24.8157V182.425V181.469ZM16.7419 186.248C14.4194 183.912 14.4194 180.088 16.7419 177.752C19.0645 175.416 22.9355 175.416 25.2581 177.752C27.5806 180.088 27.5806 183.912 25.2581 186.248C22.9355 188.584 19.0645 188.584 16.7419 186.248Z" fill="black" stroke="black"/>
</g>
<g id="Group_13">
<path id="PHRAVD" d="M131.008 28.919V28.388H130.455H128.133V26.0517V25.5207H127.58H126.695H126.142V26.0517V28.388H123.819H123.266V28.919V29.8747V30.4057H123.819H126.142V32.742V33.273H126.695H127.58H128.133V32.742V30.4057H130.455H131.008V29.8747V28.919ZM122.824 33.5915C120.501 31.2553 120.501 27.4322 122.824 25.096C125.147 22.7597 129.018 22.7597 131.34 25.096C133.663 27.4322 133.663 31.2553 131.34 33.5915C129.018 35.9278 125.147 35.9278 122.824 33.5915Z" fill="black" stroke="black"/>
</g>
<g id="Group_12">
<path id="PHRAVG" d="M75.8743 28.919V28.388H75.3213H72.9987V26.0517V25.5207H72.4457H71.5609H71.0079V26.0517V28.388H68.6853H68.1323V28.919V29.8747V30.4057H68.6853H71.0079V32.742V33.273H71.5609H72.4457H72.9987V32.742V30.4057H75.3213H75.8743V29.8747V28.919ZM67.8005 33.5915C65.4779 31.2553 65.4779 27.4322 67.8005 25.096C70.1231 22.7597 73.9941 22.7597 76.3167 25.096C78.6392 27.4322 78.6392 31.2553 76.3167 33.5915C73.9941 35.9278 70.1231 35.9278 67.8005 33.5915Z" fill="black" stroke="black"/>
</g>
<g id="Group_45">
<path id="VTRAVG" d="M64.8157 118.575V118.044H64.2627H61.9401V115.708V115.177H61.3871H60.5023H59.9493V115.708V118.044H57.6267H57.0737V118.575V119.531V120.062H57.6267H59.9493V122.398V122.929H60.5023H61.3871H61.9401V122.398V120.062H64.2627H64.8157V119.531V118.575V118.575ZM56.7419 123.248C54.4194 120.912 54.4194 117.088 56.7419 114.752C59.0645 112.416 62.9355 112.416 65.2581 114.752C67.5806 117.088 67.5806 120.912 65.2581 123.248C62.9355 125.584 59.0645 125.584 56.7419 123.248Z" fill="black" stroke="black"/>
</g>
</g>
</svg>
