<svg width="206" height="76" viewBox="0 0 206 76" fill="none" xmlns="http://www.w3.org/2000/svg">
<g id="tchekVehiclePatternLeft">
<g id="gauche">
<path id="Path-28" d="M4.32949 33.3642L8.45725 34.4538L7.39885 36.5241L18.8296 35.4345L26.1325 41.6452C23.3807 43.9334 21.7931 46.0036 20.9464 47.856C20.0996 49.7083 19.7821 52.8681 19.888 57.2266L1.1543 57.2266L1.1543 42.6259C1.47182 40.2287 1.89518 38.4854 2.2127 37.3958C2.53021 36.4151 3.27109 35.1076 4.32949 33.3642Z" stroke="#979797" stroke-width="0.3"/>
<path id="Path-29" d="M4.33396 33.3611C15.3413 29.6564 23.7027 27.1503 29.3122 26.0607C34.9217 24.9711 42.9655 24.3174 53.232 23.9905C60.0058 19.6321 65.1919 16.4722 68.8963 14.6199C72.4949 12.7676 78.1044 10.3704 85.5132 7.31953L84.4548 4.15967C107.21 2.08942 123.827 0.999825 134.411 0.999824C144.995 0.999824 158.225 2.08942 173.995 4.15967L186.59 21.9202L177.171 21.9202C177.382 22.9009 177.7 23.4457 178.229 23.9905C178.758 24.5353 179.817 25.189 181.404 26.0607L189.765 28.131L193.893 38.4822C196.01 38.8091 197.386 39.5718 198.021 40.5525C199.079 42.0779 199.926 44.1482 200.138 46.7632C200.349 49.3783 199.714 50.032 199.079 51.9933C198.656 53.3009 197.598 55.1532 195.904 57.2234L179.287 58.313C176.43 44.4751 169.55 37.8285 158.437 38.5912C147.324 39.3539 142.138 46.8722 142.773 61.4729L58.4182 62.5625C59.159 47.9618 53.5495 40.6614 41.8013 40.6614C30.0531 40.6614 23.3851 47.9618 22.0092 62.5625L2.21716 59.4026L1.15876 57.3324C0.947079 49.8141 0.947079 44.9109 1.15876 42.7317C1.37044 40.5525 1.7938 38.7002 2.21716 37.5016C2.95804 35.4313 3.59308 34.0149 4.33396 33.3611Z" stroke="#979797" stroke-width="0.3"/>
<path id="Oval" d="M175.059 57.2221C175.059 48.6142 168.286 41.6407 159.924 41.6407C151.563 41.6407 144.789 48.6142 144.789 57.2221C144.789 65.83 151.563 72.8034 159.924 72.8034C168.286 72.9124 175.059 65.9389 175.059 57.2221Z" stroke="#979797" stroke-width="0.3"/>
<path id="Oval_1_" d="M170.93 57.3326C170.93 51.0129 166.061 45.8917 160.028 45.8917C153.996 45.8917 149.127 51.0129 149.127 57.3326C149.127 63.6523 153.996 68.7734 160.028 68.7734C166.061 68.7734 170.93 63.6523 170.93 57.3326Z" stroke="#979797" stroke-width="0.3"/>
<path id="Oval_2_" d="M56.4089 59.403C56.4089 50.6862 49.6351 43.7127 41.2738 43.7127C32.9124 43.7127 26.1387 50.6862 26.1387 59.2941C26.1387 67.9019 32.9124 74.9844 41.2738 74.9844C49.6351 74.9844 56.4089 68.0109 56.4089 59.403Z" stroke="#979797" stroke-width="0.3"/>
<path id="Oval_3_" d="M52.1722 59.4029C52.1722 53.0832 47.3035 47.962 41.2706 47.962C35.2378 47.962 30.3691 53.0832 30.3691 59.4029C30.3691 65.7226 35.2378 70.8437 41.2707 70.8437C47.3035 70.8437 52.1722 65.7226 52.1722 59.4029Z" stroke="#979797" stroke-width="0.3"/>
<path id="Path-30" d="M12.5842 47.9615C14.701 47.9615 15.7594 49.0511 15.7594 51.1214C15.7594 53.1916 15.0185 54.2812 13.6426 54.2812L6.33965 54.2812C5.59877 54.2812 5.28125 53.5185 5.28125 52.211C5.28125 50.9035 5.59877 50.1408 6.33965 50.1408L12.5842 47.9615Z" stroke="#979797" stroke-width="0.3"/>
<path id="Oval_4_" d="M14.7063 51.0157C14.7063 49.8171 13.7537 48.9454 12.5895 48.9454C11.4252 48.9454 10.4727 49.9261 10.4727 51.0157C10.4727 52.1053 11.4252 53.0859 12.5895 53.0859C13.7537 53.0859 14.7063 52.2143 14.7063 51.0157Z" stroke="#979797" stroke-width="0.3"/>
<path id="Path-99" d="M7.39648 36.4062C8.13736 35.2077 9.51328 34.1181 11.5242 33.2464C14.6994 31.9389 18.0863 31.3941 21.8966 31.1761C24.4367 31.0672 27.1885 31.3941 30.2579 32.2658C30.2579 32.2658 29.517 32.5926 28.1411 33.3554C26.7652 34.1181 23.6958 34.6629 18.7214 35.4256L7.39648 36.4062Z" stroke="#979797" stroke-width="0.3"/>
<path id="Path-32" d="M22.0131 31.294C25.1883 29.8775 29.316 28.7879 34.5022 28.1341C39.6884 27.4804 49.1081 27.0445 62.6556 27.0445C61.2797 30.7492 60.5388 34.5628 60.5388 38.4854C60.5388 42.4079 60.8563 48.7276 61.5972 57.2266C58.7395 45.4588 53.5534 38.8122 45.9329 37.5047C38.3124 36.1972 31.6445 37.5047 26.1408 41.6452L18.8379 35.4345C21.378 35.2165 23.389 34.7807 25.0824 34.3449C26.7759 33.909 28.4693 33.1463 30.2686 32.2746C27.7284 31.6208 26.035 31.294 25.0824 31.185C24.2357 31.185 23.1773 31.185 22.0131 31.294Z" stroke="#979797" stroke-width="0.3"/>
<path id="Rectangle" d="M58.5273 57.3316L58.5273 62.3438L142.67 61.2541L142.67 56.242C126.582 56.7868 113.458 57.2226 103.192 57.3316C92.9253 57.4405 78.0019 57.4405 58.5273 57.3316Z" stroke="#979797" stroke-width="0.3"/>
<path id="Path-33" d="M140.766 56.2427C129.759 56.7875 118.963 57.2234 108.485 57.3323C98.007 57.4413 82.3427 57.4413 61.5981 57.3323C60.7514 48.7245 60.328 42.1868 60.5397 37.6105C60.7514 33.0342 61.3864 29.5474 62.6565 27.2592L55.3535 27.2592C64.6674 19.1962 73.3463 13.7481 81.3901 10.5883C89.434 7.42844 99.4888 5.68507 111.555 5.35819L144.894 5.35819L155.266 24.0994L155.266 37.5015C151.88 38.2643 148.704 39.8987 145.847 42.7316C142.989 45.5646 141.507 50.032 140.766 56.2427Z" stroke="#979797" stroke-width="0.3"/>
<path id="Path-34" d="M108.48 57.2266C108.163 46.8753 108.163 39.2481 108.48 34.3449C108.798 29.4416 109.539 25.628 110.597 22.904L111.656 5.25241" stroke="#979797" stroke-width="0.3"/>
<path id="Path-35" d="M153.252 19.8522L110.599 23.012L60.6424 26.1719L59.584 25.0823" stroke="#979797" stroke-width="0.3"/>
<path id="Vector_14" d="M59.4785 24.9688L108.377 21.8089L109.435 6.22754C100.65 6.55443 93.1356 7.86195 86.5735 10.368C80.0115 12.9831 70.9092 17.7774 59.4785 24.9688Z" stroke="#979797" stroke-width="0.3"/>
<path id="Vector_15" d="M115.785 20.8281L147.008 18.7579L141.822 6.22742L115.785 6.22742L115.785 20.8281Z" stroke="#979797" stroke-width="0.3"/>
<path id="Vector_16" d="M68.8957 24.9687L72.0709 24.9687C72.706 24.0971 73.0235 23.5523 73.1293 22.8985C73.2352 22.2447 73.2352 21.2641 73.1293 19.7386C71.0125 19.6297 69.7424 19.6297 69.0016 19.7386C68.2607 19.8476 67.5198 20.2834 66.8848 20.8283L66.8848 23.9881L68.8957 24.9687Z" stroke="#979797" stroke-width="0.3"/>
<path id="Path-38" d="M64.6588 26.0632C64.4471 27.2617 64.4471 27.9155 64.6588 28.1334C64.8704 28.3514 65.6113 28.3514 66.7756 28.1334L68.8924 24.9736L66.7756 23.884L64.6588 26.0632Z" stroke="#979797" stroke-width="0.3"/>
<path id="Vector_17" d="M100.651 32.2734C103.297 32.2734 105.308 32.2734 105.308 31.7286C105.308 31.1838 103.191 31.1838 100.651 31.1838C98.1109 31.1838 95.9941 31.1838 95.9941 31.7286C95.9941 32.2734 98.0051 32.2734 100.651 32.2734Z" stroke="#979797" stroke-width="0.3"/>
<path id="Vector_18" d="M149.551 29.2187C152.197 29.2187 154.208 29.2187 154.208 28.6739C154.208 28.1291 152.092 28.1291 149.551 28.1291C146.905 28.1291 144.895 28.1291 144.895 28.6739C144.895 29.2188 147.011 29.2187 149.551 29.2187Z" stroke="#979797" stroke-width="0.3"/>
<path id="Path-41" d="M193.894 38.5938L188.707 25.0827L174.102 4.27126L181.405 5.36086C183.945 7.54007 185.956 9.61032 187.649 11.5716C189.342 13.5329 191.671 17.1286 194.952 21.9229C196.116 23.9931 196.857 26.0634 197.069 28.1336C197.28 30.2039 197.704 34.3444 198.127 40.6641C198.127 40.3372 197.81 39.9013 197.069 39.5745C196.222 39.2476 195.164 38.8117 193.894 38.5938Z" stroke="#979797" stroke-width="0.3"/>
<path id="Path-96" d="M194.845 29.2187C195.374 28.1291 195.798 27.1485 195.904 26.0589C196.009 24.9693 195.692 23.5528 194.845 21.9184L177.17 21.9184C177.911 23.9886 179.287 25.4051 181.298 26.0589C183.309 26.7127 187.86 27.8023 194.845 29.2187Z" stroke="#979797" stroke-width="0.3"/>
<path id="Path-95" d="M182.361 6.22736L182.361 9.38721L188.606 17.6682L192.734 18.7578C190.829 15.7069 189.135 13.3098 187.547 11.4575C185.96 9.60513 184.266 7.86176 182.361 6.22736Z" stroke="#979797" stroke-width="0.3"/>
<path id="Path-94" d="M46.9883 23.9922L53.2328 23.9922C58.3132 20.5055 62.8643 17.7814 66.7803 15.7112C70.6964 13.6409 76.941 10.9169 85.514 7.43019L84.4556 4.27034C74.295 8.95564 66.992 12.3334 62.5467 14.6216C58.2073 16.9098 53.0212 20.0696 46.9883 23.9922Z" stroke="#979797" stroke-width="0.3"/>
<path id="Path-44" d="M200.143 46.8713L179.293 47.9609C177.494 44.3652 174.742 41.6412 170.932 39.6799C167.227 37.7186 161.935 37.0649 155.267 37.6097L155.267 24.0986L153.15 19.9581L160.453 19.9581C162.782 18.7595 164.369 17.7789 165.64 16.7982C166.91 15.8176 168.603 14.0742 170.826 11.5681C170.932 10.5875 170.932 9.93372 170.826 9.49788C170.72 9.06204 170.296 8.73516 169.767 8.40828L144.789 5.24842" stroke="#979797" stroke-width="0.3"/>
<path id="Vector_19" d="M152.198 17.7812L161.617 17.7812C164.158 15.9289 165.851 14.5124 166.804 13.6408C167.333 13.0959 167.862 12.5511 168.92 11.5705C169.661 10.8078 169.026 10.3719 167.227 10.3719L145.953 7.43L152.198 17.7812Z" stroke="#979797" stroke-width="0.3"/>
</g>
<g id="Group_20">
<path id="PRCAVG" d="M12.5836 39.1344L12.0544 39.1344L12.0544 39.6792L12.0544 41.9674L9.72589 41.9674L9.19669 41.9674L9.19669 42.5122L9.19669 43.3839L9.19669 43.9287L9.72589 43.9287L12.0544 43.9287L12.0544 46.2169L12.0544 46.7617L12.5836 46.7617L13.5361 46.7617L14.0653 46.7617L14.0653 46.2169L14.0653 43.9287L16.3938 43.9287L16.923 43.9287L16.923 43.3839L16.923 42.5122L16.923 41.9674L16.3938 41.9674L14.0653 41.9674L14.0653 39.6792L14.0653 39.1344L13.5361 39.1344L12.5836 39.1344ZM17.3464 47.0886C15.0179 49.3767 11.2076 49.3767 8.87917 47.0886C6.55069 44.8004 6.55069 40.9868 8.87917 38.6986C11.2076 36.4104 15.0179 36.4104 17.3464 38.6986C19.6748 40.9868 19.6748 44.8004 17.3464 47.0886Z" fill="black" stroke="black"/>
</g>
<g id="Group_22">
<path id="BDCG" d="M101.588 59.7282L101.059 59.7282L101.059 60.273L101.059 62.5612L98.7302 62.5612L98.201 62.5612L98.201 63.106L98.201 63.9777L98.201 64.5225L98.7302 64.5225L101.059 64.5225L101.059 66.8106L101.059 67.3554L101.588 67.3554L102.54 67.3554L103.07 67.3554L103.07 66.8106L103.07 64.5225L105.398 64.5225L105.927 64.5225L105.927 63.9777L105.927 63.106L105.927 62.5612L105.398 62.5612L103.07 62.5612L103.07 60.273L103.07 59.7282L102.54 59.7282L101.588 59.7282ZM106.245 67.6823C103.916 69.9705 100.106 69.9705 97.7776 67.6823C95.4491 65.3941 95.4491 61.5805 97.7776 59.2924C100.106 57.0042 103.916 57.0042 106.245 59.2924C108.573 61.5805 108.573 65.3941 106.245 67.6823Z" fill="black" stroke="black"/>
</g>
<g id="Group_21">
<path id="AILAVG" d="M44.1347 31.6188L43.6055 31.6188L43.6055 32.1636L43.6055 34.4518L41.277 34.4518L40.7478 34.4518L40.7478 34.9966L40.7478 35.8683L40.7478 36.4131L41.277 36.4131L43.6055 36.4131L43.6055 38.7013L43.6055 39.2461L44.1347 39.2461L45.0873 39.2461L45.6165 39.2461L45.6165 38.7013L45.6165 36.4131L47.945 36.4131L48.4742 36.4131L48.4742 35.8683L48.4742 34.9966L48.4742 34.4518L47.945 34.4518L45.6165 34.4518L45.6165 32.1636L45.6165 31.6188L45.0873 31.6188L44.1347 31.6188ZM48.7917 39.5729C46.4632 41.8611 42.653 41.8611 40.3245 39.5729C37.996 37.2848 37.996 33.4711 40.3245 31.183C42.653 28.8948 46.4632 28.8948 48.7917 31.183C51.1202 33.5801 51.1202 37.2848 48.7917 39.5729Z" fill="black" stroke="black"/>
</g>
<g id="Group_36">
<path id="PRCARG" d="M198.111 52.1036L197.582 52.1036L197.582 52.6484L197.582 54.9366L195.254 54.9366L194.724 54.9366L194.724 55.4814L194.724 56.3531L194.724 56.8979L195.254 56.8979L197.582 56.8979L197.582 59.186L197.582 59.7308L198.111 59.7308L199.064 59.7308L199.593 59.7308L199.593 59.186L199.593 56.8979L201.922 56.8979L202.451 56.8979L202.451 56.3531L202.451 55.4814L202.451 54.9366L201.922 54.9366L199.593 54.9366L199.593 52.6484L199.593 52.1036L199.064 52.1036L198.111 52.1036ZM202.768 60.1667C200.44 62.4549 196.63 62.4549 194.301 60.1667C191.973 57.8785 191.973 54.0649 194.301 51.7767C196.63 49.4886 200.44 49.4886 202.768 51.7767C205.097 54.0649 205.097 57.7696 202.768 60.1667Z" fill="black" stroke="black"/>
</g>
<g id="Group_44">
<path id="RTRG" d="M79.9003 20.8298L79.3711 20.8298L79.3711 21.3746L79.3711 23.6627L77.0427 23.6627L76.5135 23.6627L76.5135 24.2075L76.5135 25.0792L76.5135 25.624L77.0427 25.624L79.3711 25.624L79.3711 27.9122L79.3711 28.457L79.9003 28.457L80.8529 28.457L81.3821 28.457L81.3821 27.9122L81.3821 25.624L83.7106 25.624L84.2398 25.624L84.2398 25.0792L84.2398 24.2075L84.2398 23.6627L83.7106 23.6627L81.3821 23.6627L81.3821 21.3746L81.3821 20.8298L80.8529 20.8298L79.9003 20.8298ZM84.5573 28.7839C82.2288 31.072 78.4186 31.072 76.0901 28.7839C73.7616 26.4957 73.7616 22.6821 76.0901 20.3939C78.4186 18.1057 82.2288 18.1057 84.5573 20.3939C86.8858 22.791 86.8858 26.4957 84.5573 28.7839Z" fill="black" stroke="black"/>
</g>
<g id="Group_45">
<path id="VTRAVG" d="M100.533 13.3141L100.004 13.3141L100.004 13.8589L100.004 16.1471L97.6755 16.1471L97.1463 16.1471L97.1463 16.6919L97.1463 17.5636L97.1463 18.1084L97.6755 18.1084L100.004 18.1084L100.004 20.3966L100.004 20.9414L100.533 20.9414L101.486 20.9414L102.015 20.9414L102.015 20.3966L102.015 18.1084L104.343 18.1084L104.873 18.1084L104.873 17.5636L104.873 16.6919L104.873 16.1471L104.343 16.1471L102.015 16.1471L102.015 13.8589L102.015 13.3141L101.486 13.3141L100.533 13.3141V13.3141ZM105.19 21.2682C102.862 23.5564 99.0514 23.5564 96.7229 21.2682C94.3944 18.9801 94.3944 15.1665 96.7229 12.8783C99.0514 10.5901 102.862 10.5901 105.19 12.8783C107.519 15.1665 107.519 18.9801 105.19 21.2682Z" fill="black" stroke="black"/>
</g>
<g id="Group_46">
<path id="VTRARG" d="M135.252 11.1344L134.723 11.1344L134.723 11.6792L134.723 13.9674L132.394 13.9674L131.865 13.9674L131.865 14.5122L131.865 15.3839L131.865 15.9287L132.394 15.9287L134.723 15.9287L134.723 18.2169L134.723 18.7617L135.252 18.7617L136.204 18.7617L136.734 18.7617L136.734 18.2169L136.734 15.9287L139.062 15.9287L139.591 15.9287L139.591 15.3839L139.591 14.5122L139.591 13.9674L139.062 13.9674L136.734 13.9674L136.734 11.6792L136.734 11.1344L136.204 11.1344L135.252 11.1344V11.1344ZM139.909 19.0886C137.58 21.3767 133.77 21.3767 131.442 19.0886C129.113 16.8004 129.113 12.9868 131.442 10.6986C133.77 8.41043 137.58 8.41043 139.909 10.6986C142.237 12.9868 142.237 16.8004 139.909 19.0886Z" fill="black" stroke="black"/>
</g>
<g id="Group_40">
<path id="CSTARG" d="M164.466 11.1344L163.937 11.1344L163.937 11.6792L163.937 13.9674L161.609 13.9674L161.08 13.9674L161.08 14.5122L161.08 15.3839L161.08 15.9287L161.609 15.9287L163.937 15.9287L163.937 18.2169L163.937 18.7617L164.466 18.7617L165.419 18.7617L165.948 18.7617L165.948 18.2169L165.948 15.9287L168.277 15.9287L168.806 15.9287L168.806 15.3839L168.806 14.5122L168.806 13.9674L168.277 13.9674L165.948 13.9674L165.948 11.6792L165.948 11.1344L165.419 11.1344L164.466 11.1344V11.1344ZM169.229 19.0886C166.901 21.3767 163.09 21.3767 160.762 19.0886C158.434 16.8004 158.434 12.9868 160.762 10.6986C163.09 8.41043 166.901 8.41043 169.229 10.6986C171.558 12.9868 171.558 16.8004 169.229 19.0886Z" fill="black" stroke="black"/>
</g>
<g id="Group_31">
<path id="AILARG" d="M167.525 24.5333L166.996 24.5333L166.996 25.0781L166.996 27.3663L164.668 27.3663L164.138 27.3663L164.138 27.9111L164.138 28.7828L164.138 29.3276L164.668 29.3276L166.996 29.3276L166.996 31.6157L166.996 32.1605L167.525 32.1605L168.478 32.1605L169.007 32.1605L169.007 31.6157L169.007 29.3276L171.336 29.3276L171.865 29.3276L171.865 28.7828L171.865 27.9111L171.865 27.3663L171.336 27.3663L169.007 27.3663L169.007 25.0781L169.007 24.5333L168.478 24.5333L167.525 24.5333ZM172.182 32.5964C169.854 34.8845 166.044 34.8845 163.715 32.5964C161.387 30.3082 161.387 26.4946 163.715 24.2064C166.044 21.9182 169.854 21.9182 172.182 24.2064C174.511 26.4946 174.511 30.1992 172.182 32.5964Z" fill="black" stroke="black"/>
</g>
<g id="Group_52">
<path id="TRP" d="M183.084 32.8145L182.554 32.8145L182.554 33.3593L182.554 35.6475L180.226 35.6475L179.697 35.6475L179.697 36.1923L179.697 37.064L179.697 37.6088L180.226 37.6088L182.554 37.6088L182.554 39.897L182.554 40.4418L183.084 40.4418L184.036 40.4418L184.565 40.4418L184.565 39.897L184.565 37.6088L186.894 37.6088L187.423 37.6088L187.423 37.064L187.423 36.1923L187.423 35.6475L186.894 35.6475L184.565 35.6475L184.565 33.3593L184.565 32.8145L184.036 32.8145L183.084 32.8145ZM187.846 40.8776C185.518 43.1658 181.708 43.1658 179.379 40.8776C177.051 38.5895 177.051 34.7758 179.379 32.4877C181.708 30.1995 185.518 30.1995 187.846 32.4877C190.175 34.7758 190.175 38.5895 187.846 40.8776Z" fill="black" stroke="black"/>
</g>
<g id="Group_32">
<path id="PRTARG" d="M135.252 36.9552L134.723 36.9552L134.723 37.5L134.723 39.7881L132.394 39.7881L131.865 39.7881L131.865 40.3329L131.865 41.2046L131.865 41.7494L132.394 41.7494L134.723 41.7494L134.723 44.0376L134.723 44.5824L135.252 44.5824L136.204 44.5824L136.734 44.5824L136.734 44.0376L136.734 41.7494L139.062 41.7494L139.591 41.7494L139.591 41.2046L139.591 40.3329L139.591 39.7881L139.062 39.7881L136.734 39.7881L136.734 37.5L136.734 36.9552L136.204 36.9552L135.252 36.9552ZM139.909 45.0182C137.58 47.3064 133.77 47.3064 131.442 45.0182C129.113 42.7301 129.113 38.9165 131.442 36.6283C133.77 34.3401 137.58 34.3401 139.909 36.6283C142.237 38.9165 142.237 42.7301 139.909 45.0182Z" fill="black" stroke="black"/>
</g>
<g id="Group_33">
<path id="PGNAVG" d="M110.275 29.4395L109.746 29.4395L109.746 29.9844L109.746 32.2725L107.418 32.2725L106.888 32.2725L106.888 32.8173L106.888 33.689L106.888 34.2338L107.418 34.2338L109.746 34.2338L109.746 36.522L109.746 37.0668L110.275 37.0668L111.228 37.0668L111.757 37.0668L111.757 36.522L111.757 34.2338L114.086 34.2338L114.615 34.2338L114.615 33.689L114.615 32.8173L114.615 32.2725L114.086 32.2725L111.757 32.2725L111.757 29.9844L111.757 29.4395L111.228 29.4395L110.275 29.4395ZM114.932 37.5026C112.604 39.7908 108.794 39.7908 106.465 37.5026C104.137 35.2145 104.137 31.4008 106.465 29.1127C108.794 26.8245 112.604 26.8245 114.932 29.1127C117.261 31.4008 117.261 35.1055 114.932 37.5026Z" fill="black" stroke="black"/>
</g>
<g id="Group_35">
<path id="PGNARG" d="M149.33 29.4395L148.801 29.4395L148.801 29.9844L148.801 32.2725L146.472 32.2725L145.943 32.2725L145.943 32.8173L145.943 33.689L145.943 34.2338L146.472 34.2338L148.801 34.2338L148.801 36.522L148.801 37.0668L149.33 37.0668L150.283 37.0668L150.812 37.0668L150.812 36.522L150.812 34.2338L153.14 34.2338L153.669 34.2338L153.669 33.689L153.669 32.8173L153.669 32.2725L153.14 32.2725L150.812 32.2725L150.812 29.9844L150.812 29.4395L150.177 29.4395L149.33 29.4395ZM153.987 37.5026C151.659 39.7908 147.848 39.7908 145.52 37.5026C143.191 35.2145 143.191 31.4008 145.52 29.1127C147.848 26.8245 151.659 26.8245 153.987 29.1127C156.315 31.4008 156.315 35.1055 153.987 37.5026Z" fill="black" stroke="black"/>
</g>
<g id="Group_34">
<path id="PRTAVG" d="M85.2988 40.2286L84.7696 40.2286L84.7696 40.7734L84.7696 43.0616L82.4411 43.0616L81.9119 43.0616L81.9119 43.6064L81.9119 44.4781L81.9119 45.0229L82.4411 45.0229L84.7696 45.0229L84.7696 47.311L84.7696 47.8558L85.2988 47.8558L86.2513 47.8558L86.7805 47.8558L86.7805 47.311L86.7805 45.0229L89.109 45.0229L89.6382 45.0229L89.6382 44.4781L89.6382 43.6064L89.6382 43.0616L89.109 43.0616L86.7805 43.0616L86.7805 40.7734L86.7805 40.2286L86.2513 40.2286L85.2988 40.2286ZM89.9557 48.2917C87.6273 50.5799 83.817 50.5799 81.4885 48.2917C79.1601 46.0035 79.1601 42.1899 81.4885 39.9017C83.817 37.6136 87.6273 37.6136 89.9557 39.9017C92.2842 42.1899 92.2842 45.8946 89.9557 48.2917Z" fill="black" stroke="black"/>
</g>
<g id="Group_28">
<path id="ROUAVG" d="M40.3613 55.8376L39.8321 55.8376L39.8321 56.3824L39.8321 58.6705L37.5036 58.6705L36.9744 58.6705L36.9744 59.2153L36.9744 60.087L36.9744 60.6318L37.5036 60.6318L39.8321 60.6318L39.8321 62.92L39.8321 63.4648L40.3613 63.4648L41.3138 63.4648L41.843 63.4648L41.843 62.92L41.843 60.6318L44.1715 60.6318L44.7007 60.6318L44.7007 60.087L44.7007 59.2153L44.7007 58.6705L44.1715 58.6705L41.843 58.6705L41.843 56.3824L41.843 55.8376L41.3138 55.8376L40.3613 55.8376ZM45.0182 63.7917C42.6898 66.0799 38.8795 66.0799 36.551 63.7917C34.2226 61.5035 34.2226 57.6899 36.551 55.4017C38.8795 53.1136 42.6898 53.1136 45.0182 55.4017C47.3467 57.6899 47.3467 61.5035 45.0182 63.7917Z" fill="black" stroke="black"/>
</g>
<g id="Group_26">
<path id="ROUARG" d="M159.865 53.6579L159.336 53.6579L159.336 54.2027L159.336 56.4909L157.007 56.4909L156.478 56.4909L156.478 57.0357L156.478 57.9073L156.478 58.4521L157.007 58.4521L159.336 58.4521L159.336 60.7403L159.336 61.2851L159.865 61.2851L160.817 61.2851L161.347 61.2851L161.347 60.7403L161.347 58.4521L163.675 58.4521L164.204 58.4521L164.204 57.9073L164.204 57.0357L164.204 56.4909L163.675 56.4909L161.347 56.4909L161.347 54.2027L161.347 53.6579L160.817 53.6579L159.865 53.6579ZM164.628 61.612C162.299 63.9002 158.489 63.9002 156.16 61.612C153.832 59.3238 153.832 55.5102 156.16 53.222C158.489 50.9339 162.299 50.9339 164.628 53.222C166.956 55.5102 166.956 59.3238 164.628 61.612Z" fill="black" stroke="black"/>
</g>
</g>
</svg>
