<?xml version="1.0" encoding="utf-8"?>
<!-- Generator: Adobe Illustrator 24.0.0, SVG Export Plug-In . SVG Version: 6.00 Build 0)  -->
<svg version="1.1" id="Calque_1" xmlns="http://www.w3.org/2000/svg" xmlns:xlink="http://www.w3.org/1999/xlink" x="0px" y="0px"
	 viewBox="0 0 194 74" style="enable-background:new 0 0 194 74;" xml:space="preserve">
<style type="text/css">
	.st0{fill:none;stroke:#979797;stroke-width:0.3;}
</style>
<g id="Page-1">
	<g id="UI-Detection-2" transform="translate(-618.000000, -710.000000)">
		<g id="vehicle_tchek" transform="translate(619.000000, 711.000000)">
			<g id="gauche" transform="translate(23.000000, 122.000000)">
				<path id="Path-28" class="st0" d="M-19.4-90.5l4,1l-1,2l11-1l7,6c-2.6,2.2-4.2,4.2-5,6c-0.8,1.8-1.1,4.8-1,9h-18v-14
					c0.3-2.3,0.7-4,1-5S-20.4-88.8-19.4-90.5z"/>
				<path id="Path-29" class="st0" d="M-19.4-90.5c10.6-3.6,18.6-6,24-7s13.1-1.7,23-2c6.5-4.2,11.5-7.2,15-9c3.5-1.8,8.8-4.1,16-7
					l-1-3c21.8-2,37.8-3,48-3s22.9,1,38,3l12,17h-9c0.2,0.9,0.5,1.5,1,2s1.5,1.1,3,2l8,2l4,10c2,0.3,3.4,1,4,2c1,1.5,1.8,3.5,2,6
					s-0.4,3.1-1,5c-0.4,1.3-1.4,3-3,5l-16,1c-2.7-13.3-9.3-19.7-20-19c-10.7,0.7-15.7,8-15,22l-81,1c0.7-14-4.7-21-16-21
					s-17.7,7-19,21l-19-3l-1-2c-0.2-7.2-0.2-11.9,0-14s0.6-3.9,1-5C-20.7-88.5-20.1-89.8-19.4-90.5z"/>
				<ellipse id="Oval" class="st0" cx="130.1" cy="-67.5" rx="14.5" ry="15"/>
				<ellipse id="Oval_1_" class="st0" cx="130.1" cy="-67.5" rx="10.5" ry="11"/>
				<ellipse id="Oval_2_" class="st0" cx="16.1" cy="-65.5" rx="14.5" ry="15"/>
				<ellipse id="Oval_3_" class="st0" cx="16.1" cy="-65.5" rx="10.5" ry="11"/>
				<ellipse id="ROUAVG" class="st0" cx="16.1" cy="-65.5" rx="4.5" ry="5"/>
				<ellipse id="ROUARG" class="st0" cx="130.1" cy="-67.5" rx="4.5" ry="5"/>
				<path id="Path-30" class="st0" d="M-11.4-76.5c2,0,3,1,3,3s-0.7,3-2,3h-7c-0.7,0-1-0.7-1-2s0.3-2,1-2L-11.4-76.5z"/>
				<ellipse id="Oval_4_" class="st0" cx="-11.4" cy="-73.5" rx="2" ry="2"/>
				<path id="Path-99" class="st0" d="M-16.4-87.5c0.7-1.2,2-2.2,4-3c3-1.3,6.3-1.8,10-2c2.4-0.1,5.1,0.2,8,1c0,0-0.7,0.3-2,1
					c-1.3,0.7-4.3,1.3-9,2L-16.4-87.5z"/>
				<path id="Path-32" class="st0" d="M-2.4-92.5c3-1.4,7-2.4,12-3s14-1,27-1c-1.3,3.6-2,7.2-2,11s0.3,9.8,1,18
					c-2.7-11.3-7.7-17.7-15-19c-7.3-1.3-13.7,0-19,4l-7-6c2.4-0.2,4.4-0.6,6-1s3.3-1.1,5-2c-2.4-0.6-4.1-0.9-5-1S-1.3-92.6-2.4-92.5
					z"/>
				<path id="Rectangle" class="st0" d="M32.7-67.4v4.8l80.8-1v-4.8c-15.4,0.5-28,0.9-37.9,1S51.4-67.3,32.7-67.4z"/>
				<path id="Path-33" class="st0" d="M111.6-68.5c-10.6,0.5-20.9,0.9-31,1s-25.1,0.1-45,0c-0.8-8.3-1.2-14.6-1-19s0.8-7.7,2-10h-7
					c8.9-7.7,17.3-13,25-16s17.4-4.7,29-5h32l10,18v13c-3.3,0.7-6.3,2.3-9,5C113.9-78.8,112.3-74.5,111.6-68.5z"/>
				<path id="Path-34" class="st0" d="M80.6-67.5c-0.3-10-0.3-17.3,0-22c0.3-4.7,1-8.4,2-11l1-17"/>
				<polyline id="Path-35" class="st0" points="123.6,-103.5 82.6,-100.5 34.6,-97.5 33.6,-98.5 				"/>
				<path id="RTRG" class="st0" d="M42.6-98.5h3c0.6-0.8,0.9-1.4,1-2c0.1-0.6,0.1-1.6,0-3c-2-0.1-3.3-0.1-4,0s-1.4,0.5-2,1v3
					L42.6-98.5z"/>
				<path id="VTRAVG" class="st0" d="M33.6-98.5l47-3l1-15c-8.4,0.3-15.7,1.6-22,4S44.6-105.5,33.6-98.5z"/>
				<polygon id="VTRARG" class="st0" points="87.6,-102.5 117.6,-104.5 112.6,-116.5 87.6,-116.5 				"/>
				<path id="Path-38" class="st0" d="M38.6-97.5c-0.2,1.1-0.2,1.8,0,2c0.2,0.2,0.9,0.2,2,0l2-3l-2-1L38.6-97.5z"/>
				<path id="PGNAVG" class="st0" d="M73.1-91.5c2.5,0,4.5,0,4.5-0.5s-2-0.5-4.5-0.5s-4.5,0-4.5,0.5S70.6-91.5,73.1-91.5z"/>
				<path id="PGNARG" class="st0" d="M120.1-94.5c2.5,0,4.5,0,4.5-0.5s-2-0.5-4.5-0.5s-4.5,0-4.5,0.5S117.6-94.5,120.1-94.5z"/>
				<path id="Path-41" class="st0" d="M162.6-85.5l-5-13l-14-20l7,1c2.4,2.1,4.4,4.1,6,6c1.6,1.9,3.9,5.3,7,10c1.1,2,1.8,4,2,6
					s0.6,6,1,12c0-0.3-0.3-0.7-1-1C164.9-84.8,163.9-85.2,162.6-85.5z"/>
				<path id="Path-96" class="st0" d="M163.6-94.5c0.5-1,0.9-2,1-3c0.1-1-0.2-2.4-1-4h-17c0.7,2,2,3.3,4,4
					C152.6-96.8,156.9-95.8,163.6-94.5z"/>
				<path id="Path-95" class="st0" d="M151.6-116.5v3l6,8l4,1c-1.8-2.9-3.5-5.2-5-7C155.1-113.3,153.4-115,151.6-116.5z"/>
				<path id="Path-94" class="st0" d="M21.6-99.5h6c4.9-3.4,9.2-6,13-8s9.8-4.6,18-8l-1-3c-9.8,4.5-16.8,7.8-21,10
					C32.4-106.3,27.4-103.3,21.6-99.5z"/>
				<path id="Path-44" class="st0" d="M168.6-77.5l-20,1c-1.7-3.5-4.4-6.1-8-8c-3.6-1.9-8.6-2.5-15-2v-13l-2-4h7
					c2.2-1.1,3.8-2.1,5-3c1.2-0.9,2.8-2.6,5-5c0.1-0.9,0.1-1.6,0-2c-0.1-0.4-0.5-0.7-1-1l-24-3"/>
				<path id="CSTARG" class="st0" d="M122.6-105.5h9c2.4-1.8,4.1-3.1,5-4c0.5-0.5,1-1,2-2c0.7-0.7,0.1-1.1-1.6-1.2l-20.4-2.8
					L122.6-105.5z"/>
				<rect id="AILAVG" x="11.7" y="-92.4" class="st0" width="8.8" height="2.8"/>
				<rect id="PRCAV4" x="-15.3" y="-82.4" class="st0" width="8.8" height="2.8"/>
				<rect id="PRTAVG0" x="41.7" y="-92.4" class="st0" width="8.8" height="2.8"/>
				<rect id="PRTAVG2" x="41.7" y="-75.4" class="st0" width="8.8" height="2.8"/>
				<rect id="PRTAVG1" x="65.7" y="-89.4" class="st0" width="8.8" height="2.8"/>
				<rect id="PRTAVG3" x="65.7" y="-75.4" class="st0" width="8.8" height="2.8"/>
				<rect id="BDCG0" x="52.7" y="-66.4" class="st0" width="8.8" height="2.8"/>
				<rect id="BDCG1" x="94.7" y="-67.4" class="st0" width="8.8" height="2.8"/>
				<rect id="PRTARG0" x="87.7" y="-92.4" class="st0" width="8.8" height="2.8"/>
				<rect id="PRTARG2" x="87.7" y="-75.4" class="st0" width="8.8" height="2.8"/>
				<rect id="PRTARG1" x="104.7" y="-99.4" class="st0" width="8.8" height="2.8"/>
				<rect id="PRTARG3" x="104.7" y="-82.4" class="st0" width="8.8" height="2.8"/>
				<rect id="AILARG0" x="130.7" y="-99.4" class="st0" width="8.8" height="2.8"/>
				<rect id="AILARG1" x="150.7" y="-84.4" class="st0" width="8.8" height="2.8"/>
				<rect id="PRCAR0" x="152.7" y="-72.4" class="st0" width="8.8" height="2.8"/>
				<path id="TRP" class="st0" d="M146.4-92.8h-4c-0.1,0-0.2-0.1-0.2-0.2v-2.3c0-0.1,0.1-0.2,0.2-0.2h4c0.1,0,0.2,0.1,0.2,0.2v2.3
					C146.6-92.9,146.5-92.8,146.4-92.8z"/>
			</g>
		</g>
	</g>
</g>
</svg>
