<?xml version="1.0" encoding="utf-8"?>
<!-- Generator: Adobe Illustrator 24.0.0, SVG Export Plug-In . SVG Version: 6.00 Build 0)  -->
<svg version="1.1" id="Calque_1" xmlns="http://www.w3.org/2000/svg" xmlns:xlink="http://www.w3.org/1999/xlink" x="0px" y="0px"
	 viewBox="0 0 120 38" style="enable-background:new 0 0 120 38;" xml:space="preserve">
<style type="text/css">
	.st0{fill:none;stroke:#979797;stroke-width:0.3;}
</style>
<g id="Page-1">
	<g id="UI-Detection-2" transform="translate(-618.000000, -710.000000)">
		<g id="vehicle_tchek" transform="translate(619.000000, 711.000000)">
			<g id="central" transform="translate(0.000000, 57.000000)">
				<path id="Path-12" class="st0" d="M35.5-24h-14l-1-2l-1-20l5-3h12c7.8-1.1,13.8-1.8,18-2s10.5-0.2,19,0l8.5,2h11.5l5,3l-1,20
					l-2,2h-12l-1-2h-46L35.5-24z"/>
				<path id="PHRAVD" class="st0" d="M37.2-49c-3,1.3-5.2,2-6.7,2s-3.2-0.7-5-2c-0.9-0.6-1.5-1.2-2-2s-0.8-1.8-1-3h6
					c1.5,0.7,2.8,1.3,4,2S35.3-50.3,37.2-49z"/>
				<path id="PHRAVG" class="st0" d="M80.5-49c3,1.3,5.2,2,6.7,2s3.2-0.7,5-2c0.9-0.6,1.5-1.2,2-2s0.8-1.8,1-3h-6
					c-1.5,0.7-2.8,1.3-4,2S82.5-50.3,80.5-49z"/>
				<path id="Path-13" class="st0" d="M80.5-34l-22,1l-21.3-1l-0.7,3c-0.1,0.4-0.1,0.8,0,1s0.3,0.6,0.7,1h43.3c0.4-0.3,0.8-0.7,1-1
					s0.4-0.7,0.5-1L80.5-34z"/>
				<rect id="PRCAV1" x="23.6" y="-42.9" class="st0" width="8.8" height="2.8"/>
				<rect id="PRCAV2" x="54.6" y="-36.9" class="st0" width="8.8" height="2.8"/>
				<rect id="PRCAV3" x="85.6" y="-42.9" class="st0" width="8.8" height="2.8"/>
				<path id="CLR" class="st0" d="M44.5-48c4.6-1.1,22-1,28,0c4.3,0.7,10,4,10,6c0,1.3-3,2.3-9,3c-6.7,0.7-11.7,1-15,1s-8-0.3-14-1
					s-9-1.7-9-3C35.5-44,39.9-46.9,44.5-48z"/>
				<g id="Group-5" transform="translate(7.000000, 63.000000)">
					<path id="Path-27" class="st0" d="M86.5-95c0.7-0.7,1-1.7,1-3s-0.7-2.3-2-3s-2.7-0.7-4,0c-2,1-4.5,1.6-5,3s0.9,2.8,3,3
						C80.9-94.8,83.2-94.8,86.5-95z"/>
				</g>
				<g id="Group-5_1_" transform="translate(7.000000, 63.000000)">
					<path id="Path-27_1_" class="st0" d="M24.4-95c2.1-0.2,3.5-1.6,3-3s-3-2-5-3c-1.3-0.7-2.7-0.7-4,0s-2,1.7-2,3s0.3,2.3,1,3
						C20.7-94.8,23-94.8,24.4-95z"/>
				</g>
				<circle id="ABRAVG" class="st0" cx="91.5" cy="-35" r="2"/>
				<circle id="ABRAVD" class="st0" cx="26.4" cy="-35" r="2"/>
			</g>
		</g>
	</g>
</g>
</svg>
