<?xml version="1.0" encoding="utf-8"?>
<!-- Generator: Adobe Illustrator 24.0.0, SVG Export Plug-In . SVG Version: 6.00 Build 0)  -->
<svg version="1.1" id="Calque_1" xmlns="http://www.w3.org/2000/svg" xmlns:xlink="http://www.w3.org/1999/xlink" x="0px" y="0px"
	 viewBox="0 0 120 38" style="enable-background:new 0 0 120 38;" xml:space="preserve">
<style type="text/css">
	.st0{fill:none;stroke:#979797;stroke-width:0.3;}
</style>
<g id="Page-1">
	<g id="UI-Detection-2" transform="translate(-618.000000, -710.000000)">
		<g id="vehicle_tchek" transform="translate(619.000000, 711.000000)">
			<g id="central" transform="translate(0.000000, 57.000000)">
				<rect id="CFR2" x="73.1" y="-45.4" class="st0" width="8.8" height="2.8"/>
				<rect id="CFR1" x="55.1" y="-45.4" class="st0" width="8.8" height="2.8"/>
				<rect id="CFR0" x="37.1" y="-45.4" class="st0" width="8.8" height="2.8"/>
				<rect id="PRCAR3" x="86.1" y="-25.4" class="st0" width="8.8" height="2.8"/>
				<rect id="PRCAR2" x="55.1" y="-25.4" class="st0" width="8.8" height="2.8"/>
				<rect id="PRCAR1" x="24.1" y="-25.4" class="st0" width="8.8" height="2.8"/>
				<path id="Path-18" class="st0" d="M81.3-54.5l13.7-2c1.5,1.6,2.5,3,3,4s0.9,2.4,1,4v18c-0.1,2.9-0.4,4.9-1,6s-1.9,2.1-4,3H27
					c-2.5-0.4-4.2-1.1-5-2s-1.5-2.9-2-6l-1-19c0.1-1.7,0.4-3,1-4s1.9-2.3,4-4c3.1,0.4,5.5,0.8,7,1s3.4,0.6,5.5,1c10,0,17.5,0,22.5,0
					S71.4-54.5,81.3-54.5z"/>
				<path id="Path-21" class="st0" d="M88-47.5c0.1,3,0.1,5.3,0,7s-0.5,3-1,4H32c-0.5-2-0.9-3.7-1-5s-0.1-3.3,0-6l3-1l3-6h45l3,6
					L88-47.5z"/>
				<path id="Path-22" class="st0" d="M99-29.5l-12-3H33l-13,3c0.6,3.3,1.3,5.3,2,6s2.4,1.4,5,2h67c2.1-1.1,3.4-2.1,4-3
					S98.9-27.1,99-29.5z"/>
				<path id="Path-23" class="st0" d="M33-21.5h52c-1-1.3-2-2.3-3-3s-3-1.7-6-3H43c-2.7,1.2-4.7,2.2-6,3S34.4-22.7,33-21.5z"/>
				<path id="PHRARG" class="st0" d="M37-54.5l-3,6c-2.9,0.5-4.9,0.5-6,0s-2.5-1.8-4-4v-4L37-54.5z"/>
				<path id="PHRARD" class="st0" d="M95-56.5v4c-1.5,2.2-2.9,3.5-4,4c-1.1,0.5-3.1,0.5-6,0l-3-6L95-56.5z"/>
				<polygon id="ABRARG" class="st0" points="30,-26.5 34,-29.5 28,-29.5 23,-26.5 				"/>
				<polygon id="ABRARD" class="st0" points="89,-26.5 85,-29.5 91,-29.5 96,-26.5 				"/>
			</g>
		</g>
	</g>
</g>
</svg>
