<svg width="81" height="32" viewBox="0 0 81 32" fill="none" xmlns="http://www.w3.org/2000/svg">
<g id="tchekVehiclePatternFront">
<path id="Path-12" d="M17.1089 31.3437L3.09224 31.3437L2.04622 29.3116L1.00021 9.29507L6.0211 6.24687L18.0503 6.24687C25.7908 5.1292 31.8578 4.41795 36.0418 4.21474C40.2259 4.01152 46.502 4.01152 54.9748 4.21474L63.4475 6.24687L74.9537 6.24687L79.9746 9.29508L78.9286 29.3116L76.9412 31.3437L64.9119 31.3437L63.8659 29.3116L18.0503 29.3116L17.1089 31.3437Z" stroke="#979797" stroke-width="0.3"/>
<path id="Path-13" d="M62.0872 21.3884L40.1208 22.4045L18.8867 21.3884L18.1544 24.4366C18.0498 24.843 18.0498 25.2495 18.1544 25.4527C18.259 25.6559 18.4683 26.0623 18.8867 26.4687L62.0872 26.4687C62.5056 26.1639 62.924 25.7575 63.1332 25.4527C63.3424 25.1479 63.5516 24.7414 63.6563 24.4366L62.0872 21.3884Z" stroke="#979797" stroke-width="0.3"/>
<path id="Vector_3" d="M18.7832 6.34286C15.7497 7.66375 13.5531 8.375 12.0887 8.375C10.6243 8.375 8.84603 7.66375 7.0678 6.34286C6.12638 5.73322 5.60338 5.12358 5.08037 4.31073C4.55736 3.49787 4.24355 2.48181 4.03435 1.26252L9.99665 1.26252C11.4611 1.97377 12.8209 2.58341 13.9715 3.29466C15.3313 4.00591 16.9004 5.02198 18.7832 6.34286Z" stroke="#979797" stroke-width="0.3"/>
<path id="Vector_4" d="M62.0871 6.34286C65.1205 7.66375 67.3172 8.375 68.7816 8.375C70.246 8.375 72.0243 7.66375 73.8025 6.34286C74.7439 5.73322 75.2669 5.12358 75.7899 4.31073C76.3129 3.49787 76.6267 2.48181 76.8359 1.26252L70.8736 1.26252C69.4092 1.97377 68.0494 2.58341 66.8988 3.29466C65.5389 4.00591 64.0745 5.02197 62.0871 6.34286Z" stroke="#979797" stroke-width="0.3"/>
<path id="Vector_5" d="M26.1068 7.3628C30.7093 6.24512 48.0732 6.34673 54.0355 7.3628C58.3242 8.07405 63.9727 11.3255 63.9727 13.3576C63.9727 14.6785 60.9392 15.6946 54.9769 16.4058C48.2824 17.1171 43.2615 17.4219 40.0188 17.4219C36.7762 17.4219 32.0691 17.1171 26.0022 16.4058C20.0399 15.6946 17.0064 14.6785 17.0064 13.3576C17.111 11.3255 21.5043 8.48047 26.1068 7.3628Z" stroke="#979797" stroke-width="0.3"/>
<g id="Group-5">
<path id="Path-27" d="M75.0614 23.3163C75.7936 22.6051 76.1074 21.589 76.1074 20.2681C76.1074 18.9472 75.3752 17.9312 74.12 17.2199C72.8648 16.5087 71.4003 16.5087 70.1451 17.2199C68.1577 18.236 65.6472 18.8456 65.1242 20.2681C64.6012 21.6906 66.0656 23.1131 68.1577 23.3163C69.4129 23.5196 71.7141 23.5196 75.0614 23.3163Z" stroke="#979797" stroke-width="0.3"/>
</g>
<g id="Group-5_1_">
<path id="Path-27_1_" d="M13.0315 23.3163C15.1236 23.1131 16.4834 21.6906 16.065 20.2681C15.542 18.8456 13.0315 18.236 11.0441 17.2199C9.78888 16.5087 8.32445 16.5087 7.06923 17.2199C5.81401 17.9312 5.0818 18.9472 5.0818 20.2681C5.0818 21.589 5.39561 22.6051 6.12782 23.3163C9.26588 23.5196 11.5671 23.5196 13.0315 23.3163Z" stroke="#979797" stroke-width="0.3"/>
</g>
<g id="Group_9">
<path id="CLR" d="M37.0815 16.1123L37.0815 16.6433L37.6345 16.6433L39.9571 16.6433L39.9571 18.9795L39.9571 19.5105L40.5101 19.5105L41.3949 19.5105L41.9479 19.5105L41.9479 18.9795L41.9479 16.6433L44.2705 16.6433L44.8235 16.6433L44.8235 16.1123L44.8235 15.1565L44.8235 14.6256L44.2705 14.6256L41.9479 14.6256L41.9479 12.2893L41.9479 11.7583L41.3949 11.7583L40.5101 11.7583L39.9571 11.7583L39.9571 12.2893L39.9571 14.6256L37.6345 14.6256L37.0815 14.6256L37.0815 15.1565L37.0815 16.1123ZM45.2659 11.4397C47.5885 13.776 47.5885 17.599 45.2659 19.9353C42.9433 22.2716 39.0723 22.2716 36.7497 19.9353C34.4272 17.599 34.4272 13.776 36.7497 11.4397C39.0723 9.10343 42.8327 9.10343 45.2659 11.4397Z" fill="black" stroke="black"/>
</g>
<g id="Group_16">
<path id="ABRAVD" d="M4.24879 21.7685L4.24879 22.2995L4.80179 22.2995L7.12436 22.2995L7.12436 24.6358L7.12436 25.1668L7.67735 25.1668L8.56215 25.1668L9.11514 25.1668L9.11514 24.6358L9.11514 22.2995L11.4377 22.2995L11.9907 22.2995L11.9907 21.7685L11.9907 20.8128L11.9907 20.2818L11.4377 20.2818L9.11514 20.2818L9.11514 17.9455L9.11514 17.4145L8.56215 17.4145L7.67735 17.4145L7.12436 17.4145L7.12436 17.9455L7.12436 20.2818L4.80179 20.2818L4.24879 20.2818L4.24879 20.8128L4.24879 21.7685ZM12.3225 17.096C14.6451 19.4322 14.6451 23.2553 12.3225 25.5915C9.99994 27.9278 6.12896 27.9278 3.80639 25.5915C1.48381 23.2553 1.48381 19.4322 3.80639 17.096C6.23956 14.7597 9.99994 14.7597 12.3225 17.096Z" fill="black" stroke="black"/>
</g>
<g id="Group_18">
<path id="PRCAV" d="M23.021 24.7998L23.021 25.3308L23.574 25.3308L25.8966 25.3308L25.8966 27.667L25.8966 28.198L26.4496 28.198L27.3344 28.198L27.8874 28.198L27.8874 27.667L27.8874 25.3308L30.2099 25.3308L30.7629 25.3308L30.7629 24.7998L30.7629 23.844L30.7629 23.3131L30.2099 23.3131L27.8874 23.3131L27.8874 21.083L27.8874 20.552L27.3344 20.552L26.4496 20.552L25.8966 20.552L25.8966 21.083L25.8966 23.4192L23.574 23.4192L23.021 23.4192L23.021 23.9502L23.021 24.7998V24.7998ZM31.2053 20.1272C33.5279 22.4635 33.5279 26.2865 31.2053 28.6228C28.8828 30.9591 25.0118 30.9591 22.6892 28.6228C20.3666 26.2865 20.3666 22.4635 22.6892 20.1272C25.0118 17.7909 28.8828 17.7909 31.2053 20.1272Z" fill="black" stroke="black"/>
</g>
<g id="Group_17">
<path id="ABRAVG" d="M69.1382 21.7685L69.1382 22.2995L69.6912 22.2995L72.0138 22.2995L72.0138 24.6358L72.0138 25.1668L72.5668 25.1668L73.4516 25.1668L74.0045 25.1668L74.0045 24.6358L74.0045 22.2995L76.3271 22.2995L76.8801 22.2995L76.8801 21.7685L76.8801 20.8128L76.8801 20.2818L76.3271 20.2818L74.0045 20.2818L74.0045 17.9455L74.0045 17.4145L73.4516 17.4145L72.5668 17.4145L72.0138 17.4145L72.0138 17.9455L72.0138 20.2818L69.6912 20.2818L69.1382 20.2818L69.1382 20.8128L69.1382 21.7685ZM77.3225 17.096C79.6451 19.4322 79.6451 23.2553 77.3225 25.5915C74.9999 27.9278 71.129 27.9278 68.8064 25.5915C66.4838 23.2553 66.4838 19.4322 68.8064 17.096C71.129 14.7597 74.9999 14.7597 77.3225 17.096Z" fill="black" stroke="black"/>
</g>
<g id="Group_13">
<path id="PHRAVD" d="M10.0562 7.42478L10.0562 7.95575L10.6091 7.95575L12.9317 7.95575L12.9317 10.292L12.9317 10.823L13.4847 10.823L14.3695 10.823L14.9225 10.823L14.9225 10.292L14.9225 7.95575L17.2451 7.95575L17.7981 7.95575L17.7981 7.42478L17.7981 6.46903L17.7981 5.93805L17.2451 5.93805L14.9225 5.93805L14.9225 3.60177L14.9225 3.0708L14.3695 3.0708L13.4847 3.0708L12.9317 3.0708L12.9317 3.60177L12.9317 5.93805L10.6091 5.93805L10.0562 5.93805L10.0562 6.46903L10.0562 7.42478ZM18.2405 2.75221C20.5631 5.0885 20.5631 8.9115 18.2405 11.2478C15.9179 13.5841 12.0469 13.5841 9.72436 11.2478C7.40178 8.9115 7.40178 5.0885 9.72436 2.75221C12.0469 0.415929 15.9179 0.41593 18.2405 2.75221Z" fill="black" stroke="black"/>
</g>
<g id="Group_12">
<path id="PHRAVG" d="M65.1902 7.42478L65.1902 7.95575L65.7432 7.95575L68.0658 7.95575L68.0658 10.292L68.0658 10.823L68.6188 10.823L69.5036 10.823L70.0565 10.823L70.0565 10.292L70.0565 7.95575L72.3791 7.95575L72.9321 7.95575L72.9321 7.42478L72.9321 6.46903L72.9321 5.93805L72.3791 5.93805L70.0565 5.93805L70.0565 3.60177L70.0565 3.0708L69.5036 3.0708L68.6188 3.0708L68.0658 3.0708L68.0658 3.60177L68.0658 5.93805L65.7432 5.93805L65.1902 5.93805L65.1902 6.46903L65.1902 7.42478ZM73.2639 2.75221C75.5865 5.0885 75.5865 8.9115 73.2639 11.2478C70.9413 13.5841 67.0704 13.5841 64.7478 11.2478C62.4252 8.9115 62.4252 5.0885 64.7478 2.75221C67.0704 0.415929 70.9413 0.41593 73.2639 2.75221Z" fill="black" stroke="black"/>
</g>
</g>
</svg>
